<svg xmlns="http://www.w3.org/2000/svg" xmlns:xlink="http://www.w3.org/1999/xlink" viewBox="0 0 72.294 71.731"><defs><style>.cls-1,.cls-10,.cls-11,.cls-12,.cls-14,.cls-16,.cls-17,.cls-18,.cls-19,.cls-20,.cls-21,.cls-22,.cls-26,.cls-9{fill:none;}.cls-2{isolation:isolate;}.cls-3{clip-path:url(#clip-path);}.cls-4{fill:#4d4462;}.cls-5{fill:#776b92;}.cls-23,.cls-25,.cls-6{fill:#aeadd6;}.cls-6{opacity:0.59;}.cls-7,.cls-8{fill:#270032;}.cls-10,.cls-11,.cls-14,.cls-15,.cls-8,.cls-9{opacity:0.99;}.cls-10,.cls-11,.cls-12,.cls-14,.cls-16,.cls-17,.cls-26,.cls-9{stroke:#270032;}.cls-10,.cls-11,.cls-12,.cls-14,.cls-16,.cls-17,.cls-18,.cls-19,.cls-20,.cls-21,.cls-22,.cls-26,.cls-9{stroke-miterlimit:10;}.cls-10,.cls-12,.cls-18{stroke-width:0.5px;}.cls-11{stroke-width:0.369px;}.cls-12{opacity:0.72;}.cls-13{opacity:0.65;}.cls-14,.cls-16{stroke-width:0.3px;}.cls-17{stroke-width:0.217px;}.cls-18,.cls-19,.cls-20,.cls-21,.cls-22{stroke:#aeadd6;}.cls-18,.cls-19,.cls-20,.cls-21,.cls-22,.cls-23,.cls-24{opacity:0.64;}.cls-19{stroke-width:0.25px;}.cls-20{stroke-width:0.411px;}.cls-21{stroke-width:0.205px;}.cls-22{stroke-width:0.146px;}.cls-26{stroke-width:0.3px;}</style><clipPath id="clip-path" transform="translate(-22.501 -24.015)"><path class="cls-1" d="M89.431,77.551,86,82.508A30.844,30.844,0,0,1,65.586,95.25a34.79,34.79,0,0,1-7.706.448C42.2,94.876,27.726,83.68,23.613,68.059A31.1,31.1,0,0,1,27.89,42.181l3.435-4.957A31.1,31.1,0,0,0,27.048,63.1c4.113,15.622,18.589,26.818,34.267,27.64a34.911,34.911,0,0,0,7.706-.448A30.844,30.844,0,0,0,89.431,77.551Z"/></clipPath></defs><title></title><g id="complex_purple_coin" data-name="complex purple coin"><g class="cls-2"><g class="cls-2"><g class="cls-3"><g class="cls-2"><path class="cls-4" d="M89.431,77.551,86,82.508A30.844,30.844,0,0,1,65.586,95.25a34.79,34.79,0,0,1-7.706.448C42.2,94.876,27.726,83.68,23.613,68.059A31.1,31.1,0,0,1,27.89,42.181l3.435-4.957A31.1,31.1,0,0,0,27.048,63.1c4.113,15.622,18.589,26.818,34.267,27.64a34.911,34.911,0,0,0,7.706-.448,30.844,30.844,0,0,0,20.41-12.742" transform="translate(-22.501 -24.015)"/></g></g></g><path class="cls-5" d="M59.4,24.064A38.143,38.143,0,0,1,91.328,45.357c.148.288.279.574.4.851.337.746.638,1.49.923,2.25.114.3.18.493.247.682.1.268.143.406.183.552.105.3.163.5.221.7.106.319.165.55.224.765.077.25.108.4.156.542.306,1.2.5,2.126.648,3.04.043.248.085.487.118.735A31.613,31.613,0,0,1,94.2,66.265c-.03.159-.06.31-.091.469-.071.268-.124.536-.195.811l-.117.46a20.694,20.694,0,0,1-.622,2.051c-.055.209-.137.408-.209.624l-.267.74A30.493,30.493,0,0,1,69.021,90.293a34.911,34.911,0,0,1-7.706.448C45.637,89.919,31.161,78.723,27.048,63.1a31.071,31.071,0,0,1,4.588-26.318c.126-.162.252-.334.4-.512.353-.473.724-.936,1.113-1.4.135-.145.271-.3.406-.453.466-.534.967-1.041,1.476-1.548.29-.273.579-.546.877-.81a29.641,29.641,0,0,1,4.622-3.416,9.542,9.542,0,0,1,.833-.5c.25-.14.5-.271.749-.41.163-.085.336-.177.508-.253.354-.176.569-.292.8-.39l.19-.091c.414-.19.845-.379,1.286-.551.268-.113.536-.218.8-.331.294-.1.589-.2.891-.309.754-.257,1.516-.479,2.289-.684.3-.077.616-.154.928-.231.635-.145,1.269-.264,1.9-.383l.253-.038c.313-.059.644-.1.957-.136.114-.019.244-.029.358-.049l.409-.054c.314-.035.636-.06.959-.094s.654-.042.986-.076A35.121,35.121,0,0,1,59.4,24.064Z" transform="translate(-22.501 -24.015)"/></g><path class="cls-6" d="M41.373,29.5l.773,1.747-7.281,3.2c-.32.3-.628.6-.931.91l8.676-3.8.276-.116,2.435-1.072-.186-.42L42.7,31.009l-.424-.961,2.448-1.067-.19-.43L42.1,29.623l-.187-.42-.03-.074.868-.385,1.566-.687-.03-.074Z" transform="translate(-22.501 -24.015)"/><path class="cls-6" d="M32.3,37.556l-.356.029c.137-.165.283-.335.429-.5l.117-.005,13.341-5.837,2.43.447,1.95-.858.191.43-2.162.947-2.431-.448-12.917,5.66.478,1.09L46.5,32.755l2.433.609,3.405-1.5.191.429L48.9,33.89l-2.433-.609-13.457,5.9Z" transform="translate(-22.501 -24.015)"/><path class="cls-6" d="M52.991,33.338l-3.442,1.515-1.182,2.152-2.171.951-1.055-2.42L31.18,41.653l-.858-1.95c.138-.187.276-.375.424-.567l.8,1.843L45.5,34.865l1.065,2.417,1.381-.61,1.182-2.152,3.676-1.6Z" transform="translate(-22.501 -24.015)"/><path class="cls-6" d="M92.1,67.749,79.18,73.408l.477,1.09L92.8,68.746l.7.173-.138.5-.6-.148L79.3,75.169l-.71-1.622-.356.03c.137-.166.283-.335.428-.5l.117-.005L92.118,67.23l1.714.314-.115.5Z" transform="translate(-22.501 -24.015)"/><path class="cls-6" d="M92.658,71.633c-.06.22-.151.442-.229.67l-.055.153L92,71.615,78.04,77.732l-.859-1.949c.138-.188.277-.376.424-.568l.8,1.843L92.36,70.945Z" transform="translate(-22.501 -24.015)"/><path class="cls-6" d="M39.49,39.222l.332.8-6.247,2.748.2,1.632-2.148.945L30.046,43.96l-1.608.707a.517.517,0,0,0-.586-.223l-.006,0a.432.432,0,0,0-.24.337.813.813,0,0,0,.066.471c.149.341.459.524.707.42l.006,0a.432.432,0,0,0,.241-.337.762.762,0,0,0-.015-.3l1.361-.6,1.581,1.382L34.22,44.65l-.2-1.632L39.981,40.4l.721,1.726L39.386,41.6l-4.634,2.038.143,1.611-2.419,1.064.133,1.661-1.3.57a.528.528,0,0,0-.6-.253l-.006,0a.431.431,0,0,0-.241.336.821.821,0,0,0,.066.471c.15.341.459.524.707.42l.007,0a.434.434,0,0,0,.24-.337.742.742,0,0,0-.005-.261l1.566-.689-.134-1.661L35.33,45.51,35.188,43.9l4.206-1.85,1.529.6.61,1.459,3.356-1.4L42.846,37.82ZM28.424,45.3a.247.247,0,0,1-.121.186h0c-.139.058-.34-.085-.441-.313a.629.629,0,0,1-.051-.352.243.243,0,0,1,.12-.186h0c.139-.058.34.085.441.313A.63.63,0,0,1,28.424,45.3Zm2.855,3.851a.242.242,0,0,1-.121.186h0c-.138.058-.339-.085-.44-.313a.631.631,0,0,1-.052-.353.246.246,0,0,1,.122-.185h0c.139-.058.34.085.441.313A.629.629,0,0,1,31.279,49.149Zm13.072-6.662-2.6,1.086-1.726-4.13,2.6-1.085Z" transform="translate(-22.501 -24.015)"/><path class="cls-7" d="M67,52.592q3.191-4.6.717-10.76a14.68,14.68,0,0,0-1.779-3.238,12.12,12.12,0,0,0-2.383-2.459,9.246,9.246,0,0,0-2.695-1.472,6.9,6.9,0,0,0-3.282-.309c-.119.017-.245.046-.366.068l-1.623-4.045-.8.321,1.568,3.908a19.206,19.206,0,0,0-2.514.823l-1.544.619-2.136-5.325-1.519.61,2.137,5.325-3.994,1.6-1.5-3.748-.8.32,1.5,3.748-1.507.605a3.321,3.321,0,0,0-2.232,2.278,7.522,7.522,0,0,0,.73,4.245L56.31,76.2a7.68,7.68,0,0,0,2.375,3.552,3.276,3.276,0,0,0,3.218.123l3.245-1.3,1.9,4.739.8-.321-1.9-4.738,4.713-1.891L73.4,83.19l1.518-.609-2.738-6.825L77.306,73.7c.13-.052.248-.1.375-.158l1.9,4.745.8-.321L78.473,73.2a21.148,21.148,0,0,0,2.7-1.431,9.928,9.928,0,0,0,2.591-2.325,9.641,9.641,0,0,0,1.715-5.42,16.109,16.109,0,0,0-1.248-6.7C82.243,52.355,74.161,50.546,67,52.592Zm-7.8-10.874q1.966.4,3.215,3.508a7.288,7.288,0,0,1,.564,2.831,4.181,4.181,0,0,1-.924,2.972,8.412,8.412,0,0,1-3.144,1.945l-5.361,2.151L49.3,44.507l4.75-1.905A9.462,9.462,0,0,1,59.209,41.718ZM74.563,67.546,61.7,72.706l-1.8-4.488,4.736-1.9a3.691,3.691,0,0,0,3.86.461c1.864-.748,2.907-2.524,2.328-3.967s-2.56-2.006-4.425-1.258A3.878,3.878,0,0,0,64,64.1l-4.954,1.988-2.155-5.37,6.09-2.443c4.028-1.616,5.542-2.042,7.68-2.3.68-.081,5.451-.216,7.394,3.114C80.267,62.875,78.518,65.959,74.563,67.546Z" transform="translate(-22.501 -24.015)"/></g><g id="purple_coin_circuit" data-name="purple coin circuit"><rect class="cls-8" x="39.738" y="50.477" width="5.106" height="4.213" rx="0.723" transform="translate(-40.354 -2.03) rotate(-24.227)"/><path class="cls-8" d="M63.845,31.178,60.467,32.59a.723.723,0,0,1-.946-.388l-1.067-2.554a.722.722,0,0,1,.388-.945l3.378-1.412a.722.722,0,0,1,.945.388l.361.863.707,1.69A.723.723,0,0,1,63.845,31.178Z" transform="translate(-22.501 -24.015)"/><rect class="cls-8" x="41.795" y="55.372" width="5.106" height="4.213" rx="0.723" transform="translate(-42.182 -0.755) rotate(-24.227)"/><rect class="cls-8" x="44.057" y="60.312" width="5.106" height="4.213" rx="0.723" transform="translate(-44.01 0.609) rotate(-24.227)"/><rect class="cls-8" x="46.248" y="65.269" width="5.106" height="4.213" rx="0.723" transform="translate(-45.851 1.944) rotate(-24.227)"/><polyline class="cls-9" points="24.741 43.251 23.144 46.047 25.502 51.443"/><rect class="cls-10" x="47.409" y="75.439" width="1.532" height="1.532" rx="0.766" transform="translate(-38.33 -11.304) rotate(-12.929)"/><rect class="cls-10" x="43.98" y="66.802" width="1.532" height="1.532" rx="0.766" transform="translate(-36.485 -12.291) rotate(-12.929)"/><rect class="cls-10" x="41.274" y="60.671" width="1.532" height="1.532" rx="0.766" transform="translate(-35.182 -13.051) rotate(-12.929)"/><rect class="cls-11" x="70.462" y="37.757" width="1.13" height="1.13" rx="0.565" transform="translate(-29.275 -7.152) rotate(-12.929)"/><rect class="cls-12" x="30.292" y="57.119" width="1.532" height="1.532" rx="0.766" transform="translate(-34.665 -15.599) rotate(-12.929)"/><rect class="cls-12" x="67.067" y="38.344" width="1.532" height="1.532" rx="0.766" transform="translate(-29.532 -7.846) rotate(-12.929)"/><g class="cls-13"><path class="cls-7" d="M51.566,27.987a1.016,1.016,0,1,1,1.166.6A1.024,1.024,0,0,1,51.566,27.987Zm1.412-.595a.516.516,0,0,0-.592-.3.517.517,0,0,0-.386.619.5.5,0,0,0,.23.32.515.515,0,0,0,.775-.553A.484.484,0,0,0,52.978,27.392Z" transform="translate(-22.501 -24.015)"/></g><polyline class="cls-14" points="26.332 39.202 21.662 41.214 20.276 43.213 23.464 50.367"/><polyline class="cls-14" points="25.379 38.998 20.471 41.104 18.828 43.327 22.384 51.194"/><ellipse class="cls-8" cx="44.969" cy="75.384" rx="0.241" ry="0.245" transform="translate(-38.228 -12.042) rotate(-12.929)"/><ellipse class="cls-8" cx="45.978" cy="74.379" rx="0.241" ry="0.245" transform="translate(-37.978 -11.842) rotate(-12.929)"/><g class="cls-15"><polyline class="cls-16" points="23.861 38.962 19.215 41.021 17.389 43.478 20.866 51.158"/><ellipse class="cls-7" cx="43.304" cy="75.187" rx="0.241" ry="0.245" transform="translate(-38.226 -12.42) rotate(-12.929)"/></g><g class="cls-15"><polyline class="cls-17" points="21.633 28.937 18.152 30.666 15.912 30.633 13.641 25.346"/><polyline class="cls-17" points="21.539 28.345 18.07 30.108 16.299 30.025 14.157 25.129"/><polyline class="cls-17" points="21.776 28.518 18.135 30.375 16.113 30.339 13.784 24.927"/><ellipse class="cls-7" cx="36.235" cy="48.819" rx="0.185" ry="0.166" transform="translate(-44.319 6.744) rotate(-36.135)"/><ellipse class="cls-7" cx="36.706" cy="49.109" rx="0.185" ry="0.166" transform="translate(-44.4 7.077) rotate(-36.135)"/><ellipse class="cls-7" cx="36.102" cy="49.391" rx="0.185" ry="0.166" transform="translate(-44.682 6.775) rotate(-36.135)"/></g><polyline class="cls-18" points="47.168 22.69 49.489 23.165 56.085 20.408 56.201 18.7 59.813 17.19 59.951 15.425 62.189 14.49"/><polyline class="cls-18" points="48.175 25.098 57.558 21.176 57.599 19.452 61.191 17.951 63.142 19.196 65.458 18.228"/><circle class="cls-19" cx="62.716" cy="14.282" r="0.567"/><circle class="cls-19" cx="65.972" cy="17.988" r="0.567"/><circle class="cls-19" cx="54.451" cy="50.634" r="0.567"/><polyline class="cls-20" points="30.999 62.4 32.725 63.14 37.201 61.327 37.105 59.712 39.556 58.719 39.471 57.055 40.989 56.44"/><polyline class="cls-20" points="31.979 64.82 38.346 62.24 38.195 60.603 40.632 59.615 42.172 61.042 43.744 60.406"/><ellipse class="cls-21" cx="63.85" cy="80.322" rx="0.383" ry="0.567" transform="translate(-47.99 5.839) rotate(-22.056)"/><ellipse class="cls-21" cx="66.591" cy="84.255" rx="0.383" ry="0.567" transform="translate(-49.267 7.156) rotate(-22.056)"/><ellipse class="cls-22" cx="31.776" cy="68.062" rx="0.385" ry="0.283" transform="matrix(0.925, -0.38, 0.38, 0.925, -45.967, -6.85)"/><ellipse class="cls-22" cx="30.455" cy="69.111" rx="0.385" ry="0.283" transform="translate(-46.464 -7.273) rotate(-22.318)"/><path class="cls-23" d="M83.436,36.309a.472.472,0,0,0-.28.366l-3.572,1.494-.813-1.945-4.565,1.908-.976,2.3-.332.139,1.057-3.042,4.554-1.9-.193-.461-4.76,1.99-1.277,3.675-.49.2,1.445-4.351,5.672-2.371L80.069,37.1l2.4-.954,0-.007a.314.314,0,0,0,.224,0,.319.319,0,1,0-.246-.588.314.314,0,0,0-.151.152l-.009-.021-1.947.773-1.167-2.792-6.343,2.651-1.653,4.981-2.84,1.187.193.461,5.08-2.123.976-2.3L78.5,36.878l.812,1.945,4.034-1.686a.474.474,0,0,0,.458.058.48.48,0,1,0-.371-.886Zm.3.726a.307.307,0,1,1,.164-.4A.307.307,0,0,1,83.74,37.035Z" transform="translate(-22.501 -24.015)"/><path class="cls-23" d="M40.28,81.274a.475.475,0,0,0,.282-.366l3.58-1.474.8,1.95L49.519,79.5l.989-2.293.333-.138-1.074,3.037L45.2,81.985l.19.462,4.772-1.964,1.3-3.669.49-.2-1.468,4.343L44.8,83.3l-1.149-2.79-2.409.941,0,.007a.309.309,0,0,0-.224,0,.319.319,0,1,0,.395.438l.008.021,1.952-.762,1.152,2.8,6.357-2.617,1.68-4.972,2.846-1.171-.19-.463-5.092,2.1-.988,2.293-3.924,1.616-.8-1.949-4.042,1.664a.474.474,0,0,0-.458-.061.481.481,0,0,0,.366.889Zm-.3-.728a.307.307,0,1,1-.167.4A.307.307,0,0,1,39.98,80.546Z" transform="translate(-22.501 -24.015)"/><path class="cls-23" d="M36.035,51.459a.37.37,0,0,0,.3.214l1.2,2.805-1.625.7,1.537,3.585,1.9.718.112.262-2.516-.764L35.414,55.4l-.385.165,1.6,3.739,3.041.923.165.385-3.6-1.04-1.91-4.455,2.326-1-.768-1.889,0,0a.243.243,0,0,0,0-.178.268.268,0,0,0-.492.211.242.242,0,0,0,.125.117l-.018.007.622,1.53-2.333,1L35.922,59.9l4.122,1.19L41,63.321l.385-.165-1.71-3.99-1.9-.718-1.319-3.076,1.625-.7-1.359-3.167a.37.37,0,0,0,.054-.366.4.4,0,0,0-.741.317Zm.607-.26a.258.258,0,1,1-.332-.121A.252.252,0,0,1,36.642,51.2Z" transform="translate(-22.501 -24.015)"/><g class="cls-24"><path class="cls-25" d="M53.44,25.235l1.512,3.616-2.641,1.8,1.921,4.595-.388.162L51.792,30.5l2.641-1.8-1.415-3.386Z" transform="translate(-22.501 -24.015)"/></g><g class="cls-24"><polygon class="cls-25" points="14.935 47.904 18.946 51.294 19.266 50.911 15.371 47.652 10.341 35.877 7.256 35.136 5.351 30.677 4.891 30.873 6.895 35.563 9.979 36.304 14.935 47.904"/><polygon class="cls-25" points="19.779 50.019 16.471 47.551 14.736 43.49 16.323 40.868 14.95 37.653 13.062 36.969 9.148 27.555 8.686 27.747 12.684 37.363 14.575 38.049 15.762 40.829 14.494 42.923 7.556 26.683 7.096 26.879 14.175 43.45 14.226 43.568 16.064 47.871 19.48 50.42 19.779 50.019"/><polygon class="cls-25" points="9.807 45.631 13.355 53.935 13.814 53.739 11.442 48.185 13.024 49.434 14.701 53.36 15.161 53.164 13.458 49.179 11.032 47.225 10.341 45.608 11.49 42.119 14.248 48.574 18.258 51.964 18.579 51.58 14.684 48.322 9.654 36.547 6.569 35.806 4.532 31.038 4.073 31.235 6.208 36.233 9.292 36.974 11.193 41.424 9.807 45.631"/></g><circle class="cls-25" cx="15.031" cy="53.396" r="0.287"/><circle class="cls-25" cx="4.242" cy="30.952" r="0.311"/><circle class="cls-25" cx="5.074" cy="30.604" r="0.311"/><circle class="cls-25" cx="7.28" cy="26.655" r="0.311"/><circle class="cls-25" cx="8.868" cy="27.54" r="0.311"/><circle class="cls-25" cx="19.25" cy="51.167" r="0.287"/><circle class="cls-25" cx="13.612" cy="53.989" r="0.287"/><path class="cls-23" d="M93.221,50.111c.063.2.116.406.17.612a.507.507,0,0,1,.027.118l-4.487,1.995-3.376,5.226-.015.017-.01.026-.468-.444L85,57.612l3.542-5.425Z" transform="translate(-22.501 -24.015)"/><path class="cls-23" d="M93.624,51.644c.039.146.073.3.113.451l.041.178c.007.041.022.078.028.118l-4.552,2.023-2.538,4.507-.542-.467,2.6-4.651Z" transform="translate(-22.501 -24.015)"/><path class="cls-23" d="M87.593,51.141l5.222-2.313c.072.2.131.39.193.591a.531.531,0,0,1,.041.124L87.984,51.79l-3.4,5.27-.531-.494Z" transform="translate(-22.501 -24.015)"/><path class="cls-23" d="M86.719,49.956l-4.654,2.065-.028.011-.291-.593-.035-.083,4.617-2.049,1.284-2.141-6.521,2.888L81.068,50l-.3-.612.046-.019,9.7-4.314.993.431c.145.3.269.592.392.887l-1.267-.543-1.886.831Z" transform="translate(-22.501 -24.015)"/><ellipse class="cls-25" cx="81.723" cy="51.828" rx="0.339" ry="0.43" transform="translate(-37.269 20.441) rotate(-28.013)"/><ellipse class="cls-25" cx="85.207" cy="58.061" rx="0.339" ry="0.43" transform="translate(-39.788 22.807) rotate(-28.013)"/><ellipse class="cls-25" cx="80.747" cy="49.746" rx="0.339" ry="0.43" transform="translate(-36.405 19.738) rotate(-28.013)"/><polyline class="cls-9" points="19.56 34.23 16.851 35.463 19.246 40.677 22.639 39.025"/><polygon class="cls-6" points="8.302 42.852 7.804 41.644 7.185 41.621 6.316 39.514 6.489 38.853 6.724 38.754 6.264 37.652 5.061 38.155 5.521 39.257 5.53 39.253 6.791 42.314 7.417 42.312 7.862 43.392 7.382 44.064 7.723 44.894 7.87 44.834 7.573 44.115 8.054 43.443 7.509 42.122 6.883 42.125 5.676 39.192 6.289 38.936 6.141 39.503 7.09 41.806 7.709 41.829 8.207 43.036 8.846 43.066 9.129 43.752 9.275 43.692 8.941 42.882 8.302 42.852"/><rect class="cls-20" x="67.892" y="77.865" width="3.226" height="4.887" transform="translate(-48.096 9.003) rotate(-22.685)"/><rect class="cls-20" x="46.214" y="26.002" width="3.226" height="4.887" transform="translate(33.125 -50.667) rotate(67.315)"/><polyline class="cls-26" points="41.025 4.527 43.643 3.432 45.287 7.366 44.04 12.003 44.963 14.212"/><polyline class="cls-26" points="40.768 5.484 45.163 3.647 46.586 7.053 46.812 7.593 45.597 11.555 46.99 14.887"/><polyline class="cls-26" points="46.07 10.011 46.891 10.512 48.22 13.692"/></g></svg>