<svg id="Layer_1" data-name="Layer 1" xmlns="http://www.w3.org/2000/svg" xmlns:xlink="http://www.w3.org/1999/xlink" viewBox="0 0 72.294 71.729"><defs><style>.cls-1,.cls-10,.cls-11,.cls-17,.cls-18,.cls-19,.cls-20,.cls-22,.cls-24,.cls-25,.cls-26,.cls-7,.cls-8,.cls-9{fill:none;}.cls-2{isolation:isolate;}.cls-3{clip-path:url(#clip-path);}.cls-4{fill:#9f982d;}.cls-5{fill:#c1b93b;}.cls-12,.cls-14,.cls-6{fill:#806223;}.cls-6{opacity:0.59;}.cls-10,.cls-11,.cls-7,.cls-8,.cls-9{stroke:#806223;}.cls-10,.cls-11,.cls-17,.cls-18,.cls-19,.cls-20,.cls-22,.cls-24,.cls-25,.cls-26,.cls-7,.cls-8,.cls-9{stroke-miterlimit:10;}.cls-18,.cls-20,.cls-7{stroke-width:0.5px;}.cls-10,.cls-11,.cls-12,.cls-13,.cls-7,.cls-8,.cls-9{opacity:0.64;}.cls-8{stroke-width:0.25px;}.cls-9{stroke-width:0.411px;}.cls-10{stroke-width:0.205px;}.cls-11{stroke-width:0.146px;}.cls-15,.cls-16{fill:#270032;}.cls-16,.cls-17,.cls-18,.cls-19,.cls-22,.cls-23{opacity:0.99;}.cls-17,.cls-18,.cls-19,.cls-20,.cls-22,.cls-24,.cls-25,.cls-26{stroke:#270032;}.cls-19{stroke-width:0.369px;}.cls-20{opacity:0.72;}.cls-21{opacity:0.65;}.cls-22,.cls-24{stroke-width:0.3px;}.cls-25{stroke-width:0.217px;}.cls-26{stroke-width:0.3px;}</style><clipPath id="clip-path" transform="translate(-37.835 -32.774)"><path class="cls-1" d="M104.759,86.313l-3.435,4.958a30.836,30.836,0,0,1-20.4,12.738,34.9,34.9,0,0,1-7.7.446c-15.682-.822-30.16-12.013-34.275-27.637a31.1,31.1,0,0,1,4.268-25.865L46.649,46A31.1,31.1,0,0,0,42.381,71.86C46.5,87.485,60.974,98.676,76.656,99.5a34.836,34.836,0,0,0,7.7-.445A30.833,30.833,0,0,0,104.759,86.313Z"/></clipPath></defs><title>Cibo Coins</title><g class="cls-2"><g class="cls-2"><g class="cls-3"><g class="cls-2"><path class="cls-4" d="M104.759,86.313l-3.435,4.958a30.836,30.836,0,0,1-20.4,12.738,34.9,34.9,0,0,1-7.7.446c-15.682-.822-30.16-12.013-34.275-27.637a31.1,31.1,0,0,1,4.268-25.865L46.649,46A31.1,31.1,0,0,0,42.381,71.86C46.5,87.485,60.974,98.676,76.656,99.5a34.836,34.836,0,0,0,7.7-.445,30.833,30.833,0,0,0,20.405-12.739" transform="translate(-37.835 -32.774)"/></g></g></g><path class="cls-5" d="M74.736,32.823a38.142,38.142,0,0,1,31.925,21.293c.149.288.28.574.4.851.337.738.639,1.49.923,2.242.114.311.181.5.248.691.095.267.134.405.182.551.1.3.163.5.222.7.105.319.164.55.223.765.077.25.108.4.156.542.306,1.2.5,2.126.649,3.04.042.24.084.487.117.735a31.614,31.614,0,0,1-.251,10.793c-.031.151-.061.31-.1.469-.062.268-.116.536-.186.812l-.118.459a20.694,20.694,0,0,1-.622,2.051c-.055.209-.136.408-.209.624l-.267.731A30.483,30.483,0,0,1,84.354,99.052a34.836,34.836,0,0,1-7.7.445C60.974,98.676,46.5,87.485,42.381,71.86a31.063,31.063,0,0,1,4.588-26.317c.127-.163.253-.334.4-.513.353-.473.725-.936,1.113-1.4.136-.145.271-.3.407-.453.465-.534.957-1.042,1.476-1.548.289-.273.578-.546.877-.81A29.7,29.7,0,0,1,55.859,37.4a8.6,8.6,0,0,1,.833-.5c.25-.14.5-.27.74-.41.173-.084.345-.177.518-.253.353-.184.568-.292.8-.39l.19-.091c.414-.19.846-.379,1.287-.551.267-.113.535-.226.8-.331.294-.1.589-.2.892-.309.753-.256,1.516-.488,2.288-.684.3-.077.616-.154.929-.231.634-.145,1.269-.264,1.9-.383l.252-.037c.313-.06.644-.1.958-.137.113-.019.244-.029.357-.049L69.02,33c.314-.035.637-.069.951-.095.34-.024.663-.041.994-.074A34.882,34.882,0,0,1,74.736,32.823Z" transform="translate(-37.835 -32.774)"/></g><path class="cls-6" d="M56.875,37.723l.773,1.746-7.281,3.2c-.32.3-.627.6-.931.909l8.676-3.8.277-.115,2.435-1.072-.187-.421L58.2,39.229l-.423-.961L60.223,37.2l-.191-.43L57.6,37.843l-.186-.42-.031-.074.869-.385,1.566-.687-.031-.074Z" transform="translate(-37.835 -32.774)"/><path class="cls-6" d="M47.8,45.776l-.356.03c.136-.166.282-.335.428-.5l.117-.005,13.341-5.837,2.431.447,1.95-.858.19.43-2.162.947-2.431-.447L48.391,45.637l.477,1.09,13.138-5.752,2.433.609,3.406-1.5.19.43L64.4,42.11,61.966,41.5,48.509,47.4Z" transform="translate(-37.835 -32.774)"/><path class="cls-6" d="M68.493,41.559l-3.442,1.514L63.87,45.225l-2.172.951-1.055-2.42-13.96,6.117-.859-1.949c.138-.188.277-.376.424-.568l.8,1.843L61,43.086,62.067,45.5l1.381-.61L64.63,42.74l3.677-1.6Z" transform="translate(-37.835 -32.774)"/><path class="cls-6" d="M107.6,75.969,94.682,81.628l.478,1.09L108.3,76.967l.7.173-.137.5-.6-.148L94.8,83.389l-.711-1.622-.356.03c.137-.166.283-.335.429-.5l.117-.006,13.341-5.837,1.713.314-.115.5Z" transform="translate(-37.835 -32.774)"/><path class="cls-6" d="M108.16,79.853c-.059.22-.151.442-.229.67l-.055.153-.373-.841L93.542,85.953,92.684,84c.138-.188.276-.376.424-.568l.8,1.843,13.952-6.113Z" transform="translate(-37.835 -32.774)"/><path class="cls-6" d="M54.992,47.443l.333.8-6.247,2.747.2,1.632-2.149.945L45.548,52.18l-1.608.707a.517.517,0,0,0-.586-.223l-.005,0a.432.432,0,0,0-.241.337.826.826,0,0,0,.066.472c.15.34.459.523.707.419l.007,0a.432.432,0,0,0,.24-.337.763.763,0,0,0-.015-.3l1.361-.6,1.582,1.382,2.666-1.174-.2-1.632,5.961-2.621.722,1.726-1.317-.519-4.634,2.038.143,1.611-2.419,1.064.134,1.661-1.3.57a.529.529,0,0,0-.6-.253l-.006,0a.43.43,0,0,0-.24.336.821.821,0,0,0,.065.471c.15.341.46.524.708.42l.006,0a.433.433,0,0,0,.241-.337.743.743,0,0,0-.006-.261l1.567-.689L48.411,54.8l2.422-1.065-.143-1.61L54.9,50.27l1.529.6.61,1.459,3.355-1.4L58.348,46.04ZM43.926,53.519a.242.242,0,0,1-.121.185h0c-.138.058-.339-.084-.44-.313a.63.63,0,0,1-.052-.352.247.247,0,0,1,.121-.186h0c.139-.058.341.085.441.313A.624.624,0,0,1,43.926,53.519Zm2.855,3.85a.242.242,0,0,1-.121.186h0c-.139.058-.34-.084-.441-.313a.619.619,0,0,1-.051-.352.239.239,0,0,1,.121-.185l0,0c.138-.058.339.085.44.313A.62.62,0,0,1,46.781,57.369Zm13.073-6.662-2.6,1.086-1.726-4.13,2.6-1.085Z" transform="translate(-37.835 -32.774)"/><polyline class="cls-7" points="46.417 22.839 48.761 23.178 55.184 20.04 55.2 18.327 58.717 16.609 58.753 14.839 60.932 13.775"/><polyline class="cls-7" points="47.562 25.184 56.7 20.72 56.64 18.997 60.139 17.288 62.158 18.417 64.414 17.315"/><circle class="cls-8" cx="61.446" cy="13.536" r="0.567"/><circle class="cls-8" cx="64.913" cy="17.045" r="0.567"/><circle class="cls-8" cx="54.62" cy="50.095" r="0.567"/><polyline class="cls-9" points="31.168 61.861 32.894 62.601 37.37 60.788 37.274 59.174 39.725 58.181 39.64 56.516 41.158 55.901"/><polyline class="cls-9" points="32.148 64.281 38.515 61.701 38.364 60.064 40.801 59.076 42.341 60.504 43.913 59.867"/><ellipse class="cls-10" cx="79.352" cy="88.542" rx="0.383" ry="0.567" transform="translate(-65.276 3.503) rotate(-22.056)"/><ellipse class="cls-10" cx="82.093" cy="92.475" rx="0.383" ry="0.567" transform="translate(-66.552 4.82) rotate(-22.056)"/><ellipse class="cls-11" cx="47.279" cy="76.283" rx="0.385" ry="0.283" transform="matrix(0.925, -0.38, 0.38, 0.925, -63.261, -9.106)"/><path class="cls-12" d="M98.069,43.254a.476.476,0,0,0-.258.383l-3.478,1.7-.926-1.894-4.445,2.171-.84,2.352-.324.158.878-3.1,4.435-2.167-.22-.449-4.636,2.265L87.2,48.419l-.476.233,1.188-4.428,5.523-2.7,1.324,2.711L97.1,43.143l0-.007a.313.313,0,0,0,.223-.013.319.319,0,1,0-.28-.573.314.314,0,0,0-.142.161l-.009-.021-1.9.885-1.329-2.719-6.176,3.018-1.36,5.069-2.765,1.351.219.449,4.947-2.417.84-2.352,3.813-1.863.926,1.894,3.928-1.919a.473.473,0,0,0,.46.032.481.481,0,1,0-.422-.864Zm.346.708a.307.307,0,1,1,.141-.41A.307.307,0,0,1,98.415,43.962Z" transform="translate(-37.835 -32.774)"/><path class="cls-12" d="M55.782,89.494a.473.473,0,0,0,.282-.366l3.58-1.473.8,1.949,4.575-1.884.988-2.293.333-.138L65.27,88.326l-4.565,1.879.191.462L65.667,88.7l1.3-3.669.491-.2-1.469,4.344L60.3,91.516l-1.149-2.79-2.409.941,0,.007a.309.309,0,0,0-.224,0,.319.319,0,0,0,.243.59.308.308,0,0,0,.152-.152l.009.022,1.951-.763,1.152,2.8,6.357-2.617,1.68-4.971,2.846-1.172-.19-.462-5.091,2.1-.989,2.293-3.924,1.616L59.916,87l-4.042,1.664a.474.474,0,0,0-.458-.061.481.481,0,0,0,.366.889Zm-.3-.728a.307.307,0,1,1-.167.4A.307.307,0,0,1,55.483,88.766Z" transform="translate(-37.835 -32.774)"/><path class="cls-12" d="M51.537,59.679a.373.373,0,0,0,.3.214l1.2,2.806-1.624.7,1.537,3.585,1.9.719.112.261L52.45,67.2l-1.534-3.577-.385.165,1.6,3.739,3.041.923.165.385-3.6-1.04L49.83,63.337l2.325-1-.767-1.89-.006,0a.238.238,0,0,0,0-.178.268.268,0,0,0-.492.211.244.244,0,0,0,.126.117L51,60.609l.621,1.531-2.332,1,2.136,4.981,4.121,1.19.956,2.23.386-.165-1.711-3.99-1.9-.718-1.319-3.076,1.625-.7-1.358-3.168a.37.37,0,0,0,.053-.366.4.4,0,0,0-.741.317Zm.607-.26a.258.258,0,1,1-.331-.121A.25.25,0,0,1,52.144,59.419Z" transform="translate(-37.835 -32.774)"/><g class="cls-13"><path class="cls-14" d="M68.943,33.455l1.511,3.617-2.641,1.8,1.921,4.595-.388.162L67.3,38.717l2.641-1.8L68.52,33.534Z" transform="translate(-37.835 -32.774)"/></g><g class="cls-13"><polygon class="cls-14" points="15.104 47.365 19.115 50.755 19.435 50.372 15.54 47.113 10.51 35.338 7.425 34.597 5.52 30.138 5.06 30.334 7.064 35.024 10.148 35.765 15.104 47.365"/><polygon class="cls-14" points="19.948 49.48 16.64 47.012 14.905 42.951 16.492 40.329 15.119 37.114 13.231 36.43 9.317 27.016 8.855 27.208 12.853 36.824 14.744 37.51 15.931 40.29 14.663 42.385 7.725 26.144 7.265 26.34 14.344 42.911 14.395 43.029 16.233 47.332 19.649 49.881 19.948 49.48"/><polygon class="cls-14" points="9.976 45.092 13.524 53.396 13.983 53.2 11.611 47.646 13.193 48.895 14.87 52.821 15.33 52.625 13.627 48.64 11.201 46.686 10.51 45.069 11.659 41.58 14.417 48.035 18.428 51.425 18.748 51.041 14.853 47.783 9.823 36.008 6.738 35.267 4.701 30.499 4.242 30.696 6.377 35.694 9.461 36.435 11.362 40.885 9.976 45.092"/></g><circle class="cls-14" cx="15.2" cy="52.857" r="0.287"/><circle class="cls-14" cx="9.037" cy="27.001" r="0.311"/><circle class="cls-14" cx="19.419" cy="50.628" r="0.287"/><circle class="cls-14" cx="13.781" cy="53.45" r="0.287"/><path class="cls-12" d="M107.962,57.636c.074.2.139.4.2.6a.5.5,0,0,1,.034.116l-4.363,2.254-3.064,5.415-.014.018-.009.027-.493-.416-.066-.046,3.218-5.623Z" transform="translate(-37.835 -32.774)"/><path class="cls-12" d="M108.453,59.143c.048.143.091.3.139.444l.052.175c.009.04.027.076.035.116l-4.426,2.285-2.27,4.648-.569-.434,2.321-4.8Z" transform="translate(-37.835 -32.774)"/><path class="cls-12" d="M102.4,58.993l5.077-2.614c.084.193.153.381.228.579a.636.636,0,0,1,.048.121l-4.925,2.54-3.087,5.459-.559-.461Z" transform="translate(-37.835 -32.774)"/><path class="cls-12" d="M101.461,57.862,96.936,60.2l-.027.013-.325-.575-.04-.081,4.489-2.316,1.157-2.212-6.341,3.265-.026-.054-.335-.594.045-.021,9.428-4.873,1.016.371c.163.288.3.575.444.863l-1.3-.468-1.833.94Z" transform="translate(-37.835 -32.774)"/><ellipse class="cls-14" cx="96.584" cy="60.022" rx="0.339" ry="0.43" transform="translate(-54.962 26.27) rotate(-31.366)"/><ellipse class="cls-14" cx="100.426" cy="66.041" rx="0.339" ry="0.43" transform="translate(-57.533 29.15) rotate(-31.366)"/><ellipse class="cls-14" cx="95.488" cy="58.001" rx="0.339" ry="0.43" transform="translate(-54.07 25.404) rotate(-31.366)"/><polygon class="cls-6" points="8.471 42.313 7.973 41.105 7.354 41.082 6.485 38.975 6.658 38.314 6.893 38.215 6.433 37.113 5.23 37.616 5.69 38.718 5.699 38.714 6.96 41.775 7.586 41.773 8.031 42.853 7.551 43.526 7.892 44.355 8.039 44.295 7.742 43.576 8.223 42.904 7.678 41.583 7.052 41.586 5.845 38.654 6.458 38.397 6.31 38.964 7.259 41.267 7.878 41.29 8.376 42.497 9.015 42.527 9.298 43.213 9.444 43.153 9.11 42.343 8.471 42.313"/><rect class="cls-9" x="83.394" y="86.085" width="3.226" height="4.887" transform="translate(-65.401 6.859) rotate(-22.685)"/><rect class="cls-9" x="61.716" y="34.222" width="3.226" height="4.887" transform="translate(34.9 -68.679) rotate(67.315)"/><path class="cls-15" d="M82.507,60.813q3.189-4.6.717-10.761a14.694,14.694,0,0,0-1.78-3.237,12.122,12.122,0,0,0-2.382-2.46,9.259,9.259,0,0,0-2.7-1.471,6.9,6.9,0,0,0-3.282-.31c-.118.018-.244.046-.366.068L71.1,38.6l-.8.321,1.568,3.908a19.244,19.244,0,0,0-2.513.823l-1.544.62L65.67,38.944l-1.518.609,2.136,5.325L62.3,46.48l-1.5-3.748-.8.32L61.5,46.8l-1.507.6a3.321,3.321,0,0,0-2.233,2.278,7.515,7.515,0,0,0,.731,4.245l13.325,30.5a7.682,7.682,0,0,0,2.375,3.552,3.278,3.278,0,0,0,3.219.123l3.245-1.3,1.9,4.739.8-.321-1.9-4.738,4.713-1.891L88.9,91.41l1.518-.609-2.738-6.825,5.127-2.057c.13-.053.249-.106.375-.159l1.9,4.745.8-.32-1.91-4.763a21.131,21.131,0,0,0,2.7-1.431,9.927,9.927,0,0,0,2.591-2.324,9.647,9.647,0,0,0,1.716-5.421,16.141,16.141,0,0,0-1.248-6.7C97.745,60.575,89.663,58.766,82.507,60.813Zm-7.8-10.875q1.966.4,3.215,3.508a7.286,7.286,0,0,1,.563,2.831,4.185,4.185,0,0,1-.923,2.973,8.43,8.43,0,0,1-3.145,1.944l-5.361,2.151L64.8,52.728l4.75-1.906A9.476,9.476,0,0,1,74.712,49.938ZM90.065,75.766l-12.86,5.16-1.8-4.487,4.735-1.9A3.692,3.692,0,0,0,84,75c1.865-.748,2.907-2.524,2.328-3.967s-2.56-2.006-4.424-1.258a3.875,3.875,0,0,0-2.4,2.543l-4.955,1.988-2.155-5.371,6.091-2.443c4.027-1.616,5.541-2.042,7.679-2.3.68-.082,5.451-.217,7.395,3.113C95.769,71.1,94.02,74.179,90.065,75.766Z" transform="translate(-37.835 -32.774)"/><rect class="cls-16" x="55.241" y="58.697" width="5.106" height="4.213" rx="0.723" transform="translate(-57.695 -3.703) rotate(-24.227)"/><path class="cls-16" d="M78.549,38.125l-3.378,1.412a.722.722,0,0,1-.945-.388L73.158,36.6a.722.722,0,0,1,.388-.945l3.378-1.412a.723.723,0,0,1,.946.388l.36.863.707,1.69A.723.723,0,0,1,78.549,38.125Z" transform="translate(-37.835 -32.774)"/><rect class="cls-16" x="57.297" y="63.592" width="5.106" height="4.213" rx="0.723" transform="translate(-59.523 -2.428) rotate(-24.227)"/><rect class="cls-16" x="59.56" y="68.533" width="5.106" height="4.213" rx="0.723" transform="translate(-61.351 -1.065) rotate(-24.227)"/><rect class="cls-16" x="61.751" y="73.489" width="5.106" height="4.213" rx="0.723" transform="translate(-63.192 0.271) rotate(-24.227)"/><polyline class="cls-17" points="24.91 42.712 23.313 45.508 25.671 50.905"/><rect class="cls-18" x="62.912" y="83.659" width="1.532" height="1.532" rx="0.766" transform="translate(-55.11 -16.387) rotate(-12.929)"/><rect class="cls-18" x="59.483" y="75.022" width="1.532" height="1.532" rx="0.766" transform="translate(-53.264 -17.373) rotate(-12.929)"/><rect class="cls-18" x="56.776" y="68.892" width="1.532" height="1.532" rx="0.766" transform="translate(-51.961 -18.134) rotate(-12.929)"/><rect class="cls-19" x="85.167" y="44.704" width="1.13" height="1.13" rx="0.565" transform="translate(-45.79 -12.445) rotate(-12.929)"/><rect class="cls-20" x="45.794" y="65.34" width="1.532" height="1.532" rx="0.766" transform="translate(-51.445 -20.681) rotate(-12.929)"/><rect class="cls-20" x="81.772" y="45.291" width="1.532" height="1.532" rx="0.766" transform="translate(-46.047 -13.139) rotate(-12.929)"/><g class="cls-21"><path class="cls-15" d="M67.068,36.207a1.017,1.017,0,1,1,1.166.595A1.024,1.024,0,0,1,67.068,36.207Zm1.413-.595a.518.518,0,0,0-.593-.3.519.519,0,0,0-.386.619.52.52,0,0,0,.619.386.516.516,0,0,0,.386-.619A.481.481,0,0,0,68.481,35.612Z" transform="translate(-37.835 -32.774)"/></g><polyline class="cls-22" points="26.501 38.664 21.831 40.675 20.445 42.674 23.633 49.828"/><polyline class="cls-22" points="25.548 38.459 20.64 40.565 18.997 42.788 22.553 50.655"/><ellipse class="cls-16" cx="60.472" cy="83.604" rx="0.241" ry="0.245" transform="translate(-55.007 -17.125) rotate(-12.929)"/><ellipse class="cls-16" cx="61.48" cy="82.599" rx="0.241" ry="0.245" transform="translate(-54.757 -16.924) rotate(-12.929)"/><g class="cls-23"><polyline class="cls-24" points="24.03 38.424 19.384 40.482 17.558 42.939 21.035 50.619"/><ellipse class="cls-15" cx="58.806" cy="83.408" rx="0.241" ry="0.245" transform="translate(-55.006 -17.502) rotate(-12.929)"/></g><g class="cls-23"><polyline class="cls-25" points="21.803 28.398 18.321 30.127 16.081 30.094 13.81 24.807"/><polyline class="cls-25" points="21.708 27.806 18.239 29.57 16.468 29.486 14.326 24.59"/><polyline class="cls-25" points="21.945 27.979 18.304 29.836 16.282 29.801 13.953 24.389"/><ellipse class="cls-15" cx="51.738" cy="57.039" rx="0.185" ry="0.166" transform="translate(-61.518 8.708) rotate(-36.135)"/><ellipse class="cls-15" cx="52.208" cy="57.329" rx="0.185" ry="0.166" transform="translate(-61.598 9.041) rotate(-36.135)"/><ellipse class="cls-15" cx="51.604" cy="57.611" rx="0.185" ry="0.166" transform="translate(-61.88 8.739) rotate(-36.135)"/></g><polyline class="cls-17" points="19.729 33.691 17.02 34.925 19.415 40.138 22.808 38.486"/><polyline class="cls-26" points="40.396 2.715 43.014 1.62 44.658 5.553 43.411 10.191 44.334 12.4"/><polyline class="cls-26" points="40.139 3.672 44.534 1.835 45.957 5.241 46.183 5.781 44.968 9.743 46.361 13.074"/><polyline class="cls-26" points="45.442 8.199 46.262 8.7 47.591 11.88"/></svg>