<svg xmlns="http://www.w3.org/2000/svg" xmlns:xlink="http://www.w3.org/1999/xlink" viewBox="0 0 65.39 72.26"><defs><style>.cls-1,.cls-44,.cls-45,.cls-46,.cls-47,.cls-50,.cls-52,.cls-53,.cls-54,.cls-55,.cls-56,.cls-57,.cls-58,.cls-63,.cls-64,.cls-65{fill:none;}.cls-2{fill:#685d81;}.cls-3{isolation:isolate;}.cls-4{clip-path:url(#clip-path);}.cls-5{fill:#504664;}.cls-6{clip-path:url(#clip-path-2);}.cls-7{clip-path:url(#clip-path-3);}.cls-8{clip-path:url(#clip-path-4);}.cls-9{fill:#524867;}.cls-10{clip-path:url(#clip-path-5);}.cls-11{fill:#544a6a;}.cls-12{clip-path:url(#clip-path-6);}.cls-13{fill:#605678;}.cls-14{fill:#5e5476;}.cls-15{fill:#5c5273;}.cls-16{fill:#5a5071;}.cls-17{fill:#584e6e;}.cls-18{fill:#564c6c;}.cls-19{fill:#4d4462;}.cls-20{fill:#685d80;}.cls-21{clip-path:url(#clip-path-7);}.cls-22{fill:#645a7c;}.cls-23{fill:#62587a;}.cls-24{clip-path:url(#clip-path-8);}.cls-25{fill:#665b7e;}.cls-26{fill:#6b6084;}.cls-27{clip-path:url(#clip-path-9);}.cls-28{clip-path:url(#clip-path-10);}.cls-29{fill:#6a5f83;}.cls-30{fill:#6c6185;}.cls-31{fill:#6e6287;}.cls-32{fill:#6f6489;}.cls-33{fill:#71668b;}.cls-34{fill:#73678d;}.cls-35{fill:#74698f;}.cls-36{clip-path:url(#clip-path-11);}.cls-37{clip-path:url(#clip-path-12);}.cls-38{clip-path:url(#clip-path-13);}.cls-39{clip-path:url(#clip-path-14);}.cls-40{clip-path:url(#clip-path-15);}.cls-41{fill:#5a5070;}.cls-42{clip-path:url(#clip-path-16);}.cls-43,.cls-49{fill:#270032;}.cls-43,.cls-44,.cls-45,.cls-46,.cls-50,.cls-51{opacity:0.99;}.cls-44,.cls-45,.cls-46,.cls-47,.cls-50,.cls-52,.cls-53,.cls-65{stroke:#270032;}.cls-44,.cls-45,.cls-46,.cls-47,.cls-50,.cls-52,.cls-53,.cls-54,.cls-55,.cls-56,.cls-57,.cls-58,.cls-63,.cls-64,.cls-65{stroke-miterlimit:10;}.cls-44{stroke-width:0.93px;}.cls-45,.cls-47,.cls-54{stroke-width:0.47px;}.cls-46{stroke-width:0.34px;}.cls-47{opacity:0.72;}.cls-48{opacity:0.65;}.cls-50,.cls-52{stroke-width:0.28px;}.cls-53{stroke-width:0.2px;}.cls-54,.cls-55,.cls-56,.cls-57,.cls-58,.cls-63,.cls-64{stroke:#aeadd6;}.cls-54,.cls-55,.cls-56,.cls-57,.cls-58,.cls-59,.cls-60,.cls-63,.cls-64{opacity:0.64;}.cls-55{stroke-width:0.23px;}.cls-56{stroke-width:0.33px;}.cls-57{stroke-width:0.16px;}.cls-58{stroke-width:0.14px;}.cls-59,.cls-61,.cls-62{fill:#aeadd6;}.cls-62{opacity:0.59;}.cls-63{stroke-width:0.38px;}.cls-64{stroke-width:0.32px;}.cls-65{stroke-width:0.28px;}</style><clipPath id="clip-path" transform="translate(-271.02 -58.81)"><path class="cls-1" d="M289.62,62.15l9.08-2.51.36-.08L290,62.06Z"/></clipPath><clipPath id="clip-path-2" transform="translate(-271.02 -58.81)"><path class="cls-1" d="M290.27,62l9.07-2.51.33-.08-9.08,2.5Z"/></clipPath><clipPath id="clip-path-3" transform="translate(-271.02 -58.81)"><path class="cls-1" d="M290.59,61.89l9.08-2.5.76-.17-9.08,2.51Z"/></clipPath><clipPath id="clip-path-4" transform="translate(-271.02 -58.81)"><path class="cls-1" d="M291.35,61.73l9.08-2.51c.27,0,.52-.08.79-.14l-9.08,2.51C291.88,61.65,291.62,61.68,291.35,61.73Z"/></clipPath><clipPath id="clip-path-5" transform="translate(-271.02 -58.81)"><path class="cls-1" d="M292.14,61.59l9.08-2.51a22.27,22.27,0,0,1,3-.26l-9.08,2.5A22.29,22.29,0,0,0,292.14,61.59Z"/></clipPath><clipPath id="clip-path-6" transform="translate(-271.02 -58.81)"><path class="cls-1" d="M317.66,127.79l-9.08,2.51.75-.22c8.94-2.83,15.12-11.11,17.22-21.43l9.08-2.5c-2.1,10.32-8.28,18.6-17.22,21.42Z"/></clipPath><clipPath id="clip-path-7" transform="translate(-271.02 -58.81)"><path class="cls-1" d="M326.8,107.2l9.08-2.51c0,.22-.07.44-.11.66l-9.08,2.51C326.73,107.64,326.78,107.41,326.8,107.2Z"/></clipPath><clipPath id="clip-path-8" transform="translate(-271.02 -58.81)"><path class="cls-1" d="M327.1,105l9.08-2.51q-.1,1.11-.3,2.19l-9.08,2.51Q327,106.12,327.1,105Z"/></clipPath><clipPath id="clip-path-9" transform="translate(-271.02 -58.81)"><path class="cls-1" d="M327.23,103.64l9.08-2.5c0,.29-.05.57-.08.86l-9.08,2.51C327.18,104.21,327.2,103.94,327.23,103.64Z"/></clipPath><clipPath id="clip-path-10" transform="translate(-271.02 -58.81)"><path class="cls-1" d="M295.18,61.32l9.08-2.5c10.91-.19,21.82,7.69,27.74,20.1l-9.08,2.51C317,69,306.09,61.13,295.18,61.32Z"/></clipPath><clipPath id="clip-path-11" transform="translate(-271.02 -58.81)"><path class="cls-1" d="M322.92,81.43,332,78.92c.15.3.28.59.41.88l-9.08,2.5C323.2,82,323.07,81.72,322.92,81.43Z"/></clipPath><clipPath id="clip-path-12" transform="translate(-271.02 -58.81)"><path class="cls-1" d="M323.33,82.3l9.08-2.5q.51,1.13,1,2.28l.26.7a4.51,4.51,0,0,1,.2.58l-9.07,2.5c-.05-.16-.1-.3-.21-.57s-.14-.38-.26-.7C324,83.81,323.67,83.05,323.33,82.3Z"/></clipPath><clipPath id="clip-path-13" transform="translate(-271.02 -58.81)"><path class="cls-1" d="M324.76,85.86l9.07-2.5c.12.3.18.5.25.7L325,86.57C324.93,86.36,324.87,86.17,324.76,85.86Z"/></clipPath><clipPath id="clip-path-14" transform="translate(-271.02 -58.81)"><path class="cls-1" d="M325,86.57l9.08-2.51c.12.34.18.57.25.8l-9.07,2.5C325.19,87.13,325.12,86.9,325,86.57Z"/></clipPath><clipPath id="clip-path-15" transform="translate(-271.02 -58.81)"><path class="cls-1" d="M325.26,87.36l9.07-2.5c.09.25.13.41.18.56l-9.08,2.5C325.38,87.78,325.34,87.62,325.26,87.36Z"/></clipPath><clipPath id="clip-path-16" transform="translate(-271.02 -58.81)"><path class="cls-1" d="M325.43,87.92l9.08-2.5c.36,1.23.61,2.18.82,3.14.06.25.11.5.16.75a43.11,43.11,0,0,1,.85,11.33l0,.5-9.08,2.5,0-.49a43.11,43.11,0,0,0-.85-11.33c-.05-.25-.1-.51-.16-.76C326,90.11,325.8,89.16,325.43,87.92Z"/></clipPath></defs><title></title><g id="complex_purple_coin" data-name="complex purple coin"><path class="cls-2" d="M336.41,97.76v-.19c0-.62,0-1.24-.07-1.87l0-.4-.06-.67c0-.31,0-.63-.07-.95s-.09-.64-.13-1-.07-.55-.11-.83,0-.29-.06-.44c-.11-.71-.24-1.42-.38-2.14,0-.1-.05-.19-.07-.29s-.07-.31-.1-.46c-.21-1-.45-1.91-.82-3.14-.05-.15-.09-.3-.17-.56s-.14-.46-.26-.8-.13-.39-.24-.7v0a.88.88,0,0,0-.05-.15l0-.08c0-.09-.06-.19-.12-.33l-.26-.7q-.45-1.15-1-2.28c-.13-.29-.26-.58-.41-.87-.33-.7-.68-1.38-1-2.05l-.33-.57c-.28-.5-.57-1-.86-1.47l-.33-.53c-.39-.6-.78-1.19-1.19-1.77l0-.06-.14-.18c-.39-.53-.78-1-1.19-1.55l-.35-.43-.31-.38c-.16-.19-.33-.36-.49-.54-.3-.34-.61-.68-.92-1-.1-.1-.19-.22-.29-.32s-.38-.37-.57-.55-.46-.46-.7-.68l-.27-.27-.82-.7-.49-.43-.14-.12c-.46-.37-.92-.73-1.39-1.08l-.08,0-.28-.19q-.5-.36-1-.69l-.4-.25-.47-.29-.46-.29c-.33-.19-.67-.37-1-.55l-.23-.13-.08,0c-.43-.23-.87-.44-1.31-.64l-.32-.14-.42-.18-.58-.25-.93-.33-.29-.11-.12,0c-.45-.15-.9-.29-1.36-.41l-.28-.07-.45-.11-.67-.16-.76-.14-.46-.08-.23,0c-.5-.07-1-.13-1.52-.17H306c-.4,0-.8,0-1.21,0h-.55c-.4,0-.8,0-1.21,0l-.13,0c-.57,0-1.14.11-1.7.2l-.65.11h0l-.14,0-.76.17-.32.08-.47.13-.18,0-9.08,2.5.35-.08a6.77,6.77,0,0,0-.74.2l-.2.06c-.5.16-1,.33-1.5.53-.24.1-.49.19-.72.3A19.6,19.6,0,0,0,285,64l-.69.39a7.07,7.07,0,0,0-.61.4c-.34.2-.67.44-1.13.76l-.6.47c-.14.1-.26.21-.39.31l-.56.47c-.21.19-.43.37-.62.58A25.52,25.52,0,0,0,277,71.33c-.22.29-.42.59-.63.91-.36.55-.71,1.12-1,1.72l-.28.5c-.27.51-.52,1-.76,1.55-.1.19-.18.37-.27.56-3.47,7.89-4.13,17.92-1.14,27.89,4.82,16.1,17.56,26.83,30.26,26.61a21.43,21.43,0,0,0,6.15-1c.53-.16,1.05-.35,1.56-.56h0c-.5.2-1,.39-1.54.56l-.75.22h0l9.08-2.51.75-.22c.52-.16,1-.35,1.54-.55l.49-.22c.34-.14.67-.29,1-.45l.55-.28.89-.49.54-.34c.29-.17.56-.36.84-.54l.52-.37c.28-.2.55-.42.83-.64s.3-.23.44-.36c.33-.27.65-.56,1-.86l.26-.23c.37-.35.73-.73,1.08-1.11l.06-.06.22-.26c.28-.32.55-.64.82-1l.33-.43c.11-.14.23-.28.34-.43l.2-.3c.28-.39.55-.79.81-1.19.08-.13.17-.24.25-.37l.11-.2c.2-.32.38-.66.57-1s.21-.35.3-.53a.61.61,0,0,0,.07-.14c.14-.26.27-.54.4-.81s.24-.45.34-.69a1.11,1.11,0,0,0,.07-.16c.11-.23.2-.46.3-.69s.21-.49.32-.75a2.34,2.34,0,0,1,.09-.24l.24-.66.24-.66.12-.39.21-.66c.05-.17.11-.33.16-.5s.11-.41.16-.61.11-.42.17-.62a3,3,0,0,1,.08-.32q.17-.68.3-1.35l-3.61,1,3.61-1,.14-.79-1.95.54,1.95-.54.09-.49c0-.06,0-.11,0-.17,0-.22.08-.44.11-.66q.09-.56.15-1.11c0-.14,0-.28,0-.42h0l.05-.5-3.52,1,3.52-1c0-.29,0-.57.08-.86l0-.5c0-.43,0-.85.06-1.29s0-.8,0-1.2C336.4,98,336.41,97.89,336.41,97.76ZM317,125.84h0q.56-.46,1.08-1l-.11.09C317.62,125.28,317.3,125.56,317,125.84Zm-1.28,1h0l.89-.68,0,0Zm-1.35.91h0c.29-.18.58-.38.87-.57h0Zm-1.44.82h0c.31-.16.62-.33.92-.51h0C313.51,128.25,313.21,128.41,312.91,128.57Zm11.72-43.08a2.07,2.07,0,0,0-.08-.21c-.05-.13-.1-.28-.17-.45.07.18.13.32.18.46Zm-.18,30c.13-.32.26-.63.38-1-.12.31-.24.62-.37.92Zm-.29.65c-.13.29-.27.57-.41.86l0,.07c.15-.31.31-.62.45-.94Zm-.8,1.65v0l-.37.66a.59.59,0,0,1,0,.08C323.08,118.26,323.23,118,323.36,117.75Zm-.95,1.68-.36.56,0,.05.4-.63Zm-1.17,1.75c-.18.25-.35.5-.54.74l0,0c.2-.26.4-.53.59-.81Zm-.87,1.16c-.26.33-.54.66-.82,1a.27.27,0,0,1-.07.08c.31-.35.62-.71.91-1.08Zm-1,1.23c-.37.41-.75.8-1.14,1.18h0c.4-.38.79-.79,1.17-1.21Zm7.08-31.76c0-.16-.07-.33-.1-.5,0,.17.07.34.11.51.18.86.32,1.72.44,2.58v0C326.74,93.57,326.6,92.69,326.41,91.81Zm.28,16h0c0-.21.08-.42.11-.63C326.77,107.43,326.73,107.64,326.69,107.85Zm.15-.92c.11-.63.2-1.27.26-1.93l3.88-1.06L327.1,105C327,105.66,327,106.3,326.84,106.93ZM327,95.17v0c.06.44.1.88.14,1.33Q327,95.86,327,95.17Zm-1.53-7.25c.26.86.45,1.57.61,2.25-.16-.68-.36-1.39-.61-2.25-.05-.14-.09-.3-.18-.56s-.08-.26-.12-.42l.13.42C325.34,87.62,325.38,87.78,325.43,87.92Zm-.5-1.58c-.05-.14-.1-.28-.18-.48a.82.82,0,0,0-.06-.19v0l.06.17Zm-1.71-4.27c-.09-.21-.19-.42-.3-.64-.34-.72-.71-1.42-1.08-2.11l0,.07c.36.67.71,1.34,1.05,2C323,81.64,323.13,81.86,323.22,82.07Zm-24.1-20.46h0c-.61-.1-1.22-.17-1.84-.22h0C297.9,61.44,298.51,61.51,299.12,61.61Zm.45.08c.48.08,1,.18,1.43.3h0c-.48-.12-1-.22-1.45-.3Zm1.89.41.31.09-.31-.09Zm14.27,8.79h0l-.5-.51Zm.92,1c.27.31.54.61.81.93v0c-.27-.33-.55-.65-.83-1Zm1.15,1.36c.41.5.81,1,1.19,1.55l.08.1c-.42-.58-.85-1.13-1.29-1.68ZM319.13,75q.63.89,1.23,1.83l0,.05c-.41-.65-.84-1.29-1.28-1.91Zm1.56,2.35c.29.48.58,1,.86,1.47l.07.11c-.32-.57-.65-1.13-1-1.67Zm-30-15.46.09,0-.1,0Zm1.34-.26.15,0c.16,0,.33,0,.49-.06-.16,0-.32,0-.49.06Zm1.8-.22h0c.45,0,.9-.06,1.35-.07s1.16,0,1.75,0h0c-.6,0-1.19-.06-1.78,0S294.26,61.36,293.79,61.4Zm17.53,67.93c.35-.15.71-.31,1.05-.48h0c-.33.16-.66.3-1,.45Zm15.83-24.83s0-.1,0-.15,0,.1,0,.15Z" transform="translate(-271.02 -58.81)"/><g class="cls-3"><g class="cls-3"><g class="cls-4"><g class="cls-3"><path class="cls-5" d="M289.62,62.15l9.08-2.51.36-.08L290,62.06l-.36.09" transform="translate(-271.02 -58.81)"/></g></g></g><g class="cls-3"><g class="cls-6"><g class="cls-3"><path class="cls-5" d="M290.27,62l9.07-2.51.33-.08-9.08,2.5-.32.09" transform="translate(-271.02 -58.81)"/></g></g></g><g class="cls-3"><g class="cls-7"><g class="cls-3"><path class="cls-5" d="M290.59,61.89l9.08-2.5.76-.17-9.08,2.51-.76.16" transform="translate(-271.02 -58.81)"/></g></g></g><g class="cls-3"><g class="cls-8"><g class="cls-3"><path class="cls-5" d="M291.35,61.73l9.08-2.51.13,0-9.08,2.51-.13,0" transform="translate(-271.02 -58.81)"/><path class="cls-9" d="M291.48,61.71l9.08-2.51.36-.06-9.08,2.51-.36.06" transform="translate(-271.02 -58.81)"/><path class="cls-5" d="M291.84,61.65l9.08-2.51.3-.06-9.08,2.51-.3.06" transform="translate(-271.02 -58.81)"/></g></g></g><g class="cls-3"><g class="cls-10"><g class="cls-3"><path class="cls-9" d="M292.14,61.59l9.08-2.51q.91-.13,1.83-.21L294,61.38q-.92.06-1.83.21" transform="translate(-271.02 -58.81)"/><path class="cls-11" d="M294,61.38l9.08-2.51c.4,0,.81,0,1.21,0l-9.08,2.5-1.21.06" transform="translate(-271.02 -58.81)"/></g></g></g><g class="cls-3"><g class="cls-12"><g class="cls-3"><path class="cls-13" d="M326.55,108.65l9.08-2.5c-.09.45-.19.9-.3,1.34L326.25,110c.11-.45.21-.89.3-1.35" transform="translate(-271.02 -58.81)"/><path class="cls-14" d="M326.25,110l9.08-2.51c-.13.53-.27,1-.41,1.56l-9.08,2.5c.15-.51.28-1,.41-1.55" transform="translate(-271.02 -58.81)"/><path class="cls-15" d="M325.84,111.55l9.08-2.5c-.15.52-.32,1-.49,1.55l-9.08,2.5c.17-.51.34-1,.49-1.55" transform="translate(-271.02 -58.81)"/><path class="cls-16" d="M325.35,113.1l9.08-2.5c-.18.53-.37,1.05-.58,1.56l-9.08,2.51c.21-.51.4-1,.58-1.57" transform="translate(-271.02 -58.81)"/><path class="cls-17" d="M324.77,114.67l9.08-2.51c-.21.55-.44,1.08-.68,1.6l-9.08,2.51c.24-.53.47-1.06.68-1.6" transform="translate(-271.02 -58.81)"/><path class="cls-18" d="M324.09,116.27l9.08-2.51c-.26.56-.53,1.11-.81,1.64l-9.08,2.51c.28-.54.56-1.08.81-1.64" transform="translate(-271.02 -58.81)"/><path class="cls-11" d="M323.28,117.91l9.08-2.51c-.31.59-.64,1.16-1,1.72l-9.08,2.5q.52-.83,1-1.71" transform="translate(-271.02 -58.81)"/><path class="cls-9" d="M322.29,119.62l9.08-2.5c-.39.64-.82,1.26-1.26,1.86L321,121.49c.45-.6.87-1.23,1.26-1.87" transform="translate(-271.02 -58.81)"/><path class="cls-5" d="M321,121.49l9.08-2.51a26.14,26.14,0,0,1-1.76,2.15l-9.08,2.51a26.14,26.14,0,0,0,1.76-2.15" transform="translate(-271.02 -58.81)"/><path class="cls-19" d="M319.27,123.64l9.08-2.51a22.75,22.75,0,0,1-9.94,6.44l-.75.22-9.08,2.51.75-.22a22.75,22.75,0,0,0,9.94-6.44" transform="translate(-271.02 -58.81)"/></g></g></g><polygon class="cls-20" points="55.67 49.04 64.75 46.54 64.61 47.33 55.53 49.84 55.67 49.04"/><g class="cls-3"><g class="cls-21"><g class="cls-3"><path class="cls-22" d="M326.8,107.2l9.08-2.51c0,.06,0,.11,0,.16l-9.08,2.51s0-.11,0-.16" transform="translate(-271.02 -58.81)"/><path class="cls-23" d="M326.78,107.36l9.08-2.51-.09.5-9.08,2.51.09-.5" transform="translate(-271.02 -58.81)"/></g></g></g><g class="cls-3"><g class="cls-24"><g class="cls-3"><path class="cls-25" d="M327.1,105l9.08-2.51c0,.14,0,.28,0,.42l-9.08,2.5c0-.13,0-.27,0-.41" transform="translate(-271.02 -58.81)"/><path class="cls-22" d="M327.06,105.42l9.08-2.5c0,.37-.09.74-.15,1.1l-9.08,2.51c.06-.37.11-.73.15-1.11" transform="translate(-271.02 -58.81)"/><path class="cls-23" d="M326.91,106.53,336,104c0,.23-.07.45-.11.67l-9.08,2.51c0-.22.08-.45.11-.67" transform="translate(-271.02 -58.81)"/></g></g></g><polygon class="cls-26" points="56.13 45.69 65.21 43.19 65.16 43.69 56.08 46.19 56.13 45.69"/><g class="cls-3"><g class="cls-27"><g class="cls-3"><path class="cls-25" d="M327.23,103.64l9.08-2.5c0,.29-.05.57-.08.86l-9.08,2.51c0-.3.05-.57.08-.87" transform="translate(-271.02 -58.81)"/></g></g></g><g class="cls-3"><g class="cls-28"><g class="cls-3"><path class="cls-11" d="M295.18,61.32l9.08-2.5h.55l-9.08,2.5h-.55" transform="translate(-271.02 -58.81)"/><path class="cls-18" d="M295.73,61.32l9.08-2.5c.54,0,1.09,0,1.63.07l-9.08,2.5c-.54,0-1.08-.07-1.63-.07" transform="translate(-271.02 -58.81)"/><path class="cls-17" d="M297.36,61.39l9.08-2.5c.51,0,1,.09,1.52.17l-9.08,2.5c-.5-.07-1-.13-1.52-.17" transform="translate(-271.02 -58.81)"/><path class="cls-16" d="M298.88,61.56l9.08-2.5c.49.07,1,.16,1.45.26l-9.08,2.5c-.48-.1-1-.18-1.45-.26" transform="translate(-271.02 -58.81)"/><path class="cls-15" d="M300.33,61.82l9.08-2.5c.47.1.94.21,1.4.34l-9.08,2.5c-.46-.12-.93-.24-1.4-.34" transform="translate(-271.02 -58.81)"/><path class="cls-14" d="M301.73,62.16l9.08-2.5c.45.12.91.26,1.36.41l-9.08,2.5c-.45-.15-.9-.28-1.36-.41" transform="translate(-271.02 -58.81)"/><path class="cls-13" d="M303.09,62.57l9.08-2.5c.45.15.89.31,1.33.48l-9.08,2.51c-.44-.18-.88-.34-1.33-.49" transform="translate(-271.02 -58.81)"/><path class="cls-23" d="M304.42,63.06l9.08-2.51,1.33.56-9.08,2.51c-.44-.2-.88-.39-1.33-.56" transform="translate(-271.02 -58.81)"/><path class="cls-22" d="M305.75,63.62l9.08-2.51c.44.21.88.42,1.31.65l-9.08,2.5c-.43-.22-.87-.44-1.31-.64" transform="translate(-271.02 -58.81)"/><path class="cls-25" d="M307.06,64.26l9.08-2.5,1.32.72L308.38,65c-.44-.26-.88-.5-1.32-.73" transform="translate(-271.02 -58.81)"/><path class="cls-2" d="M308.38,65l9.08-2.51c.44.27.89.54,1.33.83l-9.08,2.5c-.44-.28-.88-.56-1.33-.82" transform="translate(-271.02 -58.81)"/><path class="cls-29" d="M309.71,65.81l9.08-2.5,1.35.93-9.08,2.51c-.45-.33-.9-.64-1.35-.94" transform="translate(-271.02 -58.81)"/><path class="cls-30" d="M311.06,66.75l9.08-2.51q.71.53,1.38,1.08l-9.07,2.5c-.46-.37-.92-.73-1.39-1.07" transform="translate(-271.02 -58.81)"/><path class="cls-31" d="M312.45,67.82l9.07-2.5c.5.4,1,.82,1.45,1.25l-9.07,2.51c-.48-.44-1-.86-1.45-1.26" transform="translate(-271.02 -58.81)"/><path class="cls-32" d="M313.9,69.08,323,66.57c.53.48,1,1,1.55,1.5l-9.08,2.51c-.5-.52-1-1-1.54-1.5" transform="translate(-271.02 -58.81)"/><path class="cls-33" d="M315.44,70.58l9.08-2.51c.58.6,1.15,1.22,1.7,1.87l-9.08,2.51c-.55-.65-1.12-1.28-1.7-1.87" transform="translate(-271.02 -58.81)"/><path class="cls-34" d="M317.14,72.45l9.08-2.51c.7.83,1.38,1.7,2,2.6l-9.08,2.51c-.65-.91-1.32-1.78-2-2.6" transform="translate(-271.02 -58.81)"/><path class="cls-35" d="M319.17,75.05l9.08-2.51A42.09,42.09,0,0,1,332,78.92l-9.08,2.51a41.61,41.61,0,0,0-3.75-6.38" transform="translate(-271.02 -58.81)"/></g></g></g><g class="cls-3"><g class="cls-36"><g class="cls-3"><path class="cls-35" d="M322.92,81.43,332,78.92c.15.3.28.59.41.88l-9.08,2.5c-.13-.29-.26-.58-.41-.87" transform="translate(-271.02 -58.81)"/></g></g></g><g class="cls-3"><g class="cls-37"><g class="cls-3"><path class="cls-35" d="M323.33,82.3l9.08-2.5q.51,1.13,1,2.28l.26.7c.1.27.15.41.2.56l-9.08,2.51a5.05,5.05,0,0,0-.2-.56c-.07-.2-.14-.38-.26-.7-.3-.78-.62-1.54-1-2.29" transform="translate(-271.02 -58.81)"/><path class="cls-34" d="M324.75,85.85l9.08-2.51v0l-9.07,2.5h0" transform="translate(-271.02 -58.81)"/></g></g></g><g class="cls-3"><g class="cls-38"><g class="cls-3"><path class="cls-35" d="M324.76,85.86l9.07-2.5c.12.3.18.5.25.7L325,86.57c-.07-.21-.13-.4-.24-.71" transform="translate(-271.02 -58.81)"/></g></g></g><g class="cls-3"><g class="cls-39"><g class="cls-3"><path class="cls-35" d="M325,86.57l9.08-2.51c.12.34.18.57.25.8l-9.07,2.5c-.07-.23-.14-.46-.26-.79" transform="translate(-271.02 -58.81)"/></g></g></g><g class="cls-3"><g class="cls-40"><g class="cls-3"><path class="cls-35" d="M325.26,87.36l9.07-2.5c.09.25.13.41.18.56l-9.08,2.5c-.05-.14-.09-.3-.17-.56" transform="translate(-271.02 -58.81)"/></g></g></g><path class="cls-41" d="M295.18,61.32c10.91-.19,21.82,7.7,27.74,20.11.15.29.28.58.41.87.34.75.66,1.51,1,2.29.12.32.19.5.26.7s.16.41.21.57c.11.31.17.5.24.71s.19.56.26.79.12.42.17.56c.37,1.24.61,2.19.82,3.14.06.25.11.51.16.76a43.11,43.11,0,0,1,.85,11.33l0,.49c0,.3-.05.57-.08.87l0,.5q-.11,1.11-.3,2.19c0,.21-.07.44-.11.66l-.14.79c-2.1,10.32-8.28,18.6-17.22,21.43a22.15,22.15,0,0,1-6.15,1c-12.7.22-25.44-10.51-30.26-26.61-3-10-2.33-20,1.14-27.89.09-.19.17-.38.27-.57.24-.53.49-1,.76-1.54l.28-.5c.33-.61.68-1.17,1-1.73l.63-.91a25.52,25.52,0,0,1,3.39-3.91c.19-.21.41-.39.62-.58l.56-.47.39-.31c.26-.21.43-.34.6-.46.46-.33.79-.57,1.13-.77l.61-.4L285,64c.58-.32,1.17-.61,1.78-.88l.72-.3c.5-.19,1-.37,1.5-.53l.2-.06a6.41,6.41,0,0,1,.75-.21l.29-.08.32-.09.76-.16c.27,0,.53-.08.79-.14A22.29,22.29,0,0,1,295.18,61.32Z" transform="translate(-271.02 -58.81)"/><g class="cls-3"><g class="cls-42"><g class="cls-3"><path class="cls-34" d="M325.43,87.92l9.08-2.5c.36,1.23.61,2.18.82,3.14,0,.15.07.3.1.46l-9.08,2.5c0-.15-.07-.31-.1-.46-.21-1-.45-1.9-.82-3.14" transform="translate(-271.02 -58.81)"/><path class="cls-33" d="M326.35,91.52l9.08-2.5.06.29c.15.71.28,1.43.39,2.14L326.8,94c-.11-.72-.24-1.43-.39-2.14l-.06-.3" transform="translate(-271.02 -58.81)"/><path class="cls-32" d="M326.8,94l9.08-2.51c.12.75.22,1.49.29,2.23l-9.07,2.5q-.12-1.11-.3-2.22" transform="translate(-271.02 -58.81)"/><path class="cls-31" d="M327.1,96.18l9.07-2.5c.08.67.13,1.35.17,2l-9.08,2.5c0-.67-.09-1.34-.16-2" transform="translate(-271.02 -58.81)"/><path class="cls-30" d="M327.26,98.2l9.08-2.5c0,.63.06,1.25.07,1.87l-9.08,2.51c0-.62,0-1.25-.07-1.88" transform="translate(-271.02 -58.81)"/><path class="cls-29" d="M327.33,100.08l9.08-2.51c0,.6,0,1.19,0,1.78l-9.08,2.51c0-.59,0-1.18,0-1.78" transform="translate(-271.02 -58.81)"/><path class="cls-2" d="M327.31,101.86l9.08-2.51c0,.43,0,.86-.05,1.29l0,.5-9.08,2.5,0-.49c0-.43,0-.86.05-1.29" transform="translate(-271.02 -58.81)"/></g></g></g></g></g><g id="purple_coin_circuit" data-name="purple coin circuit"><path class="cls-43" d="M286.84,93.26l-2.7,1.61c-.29.18-.63,0-.77-.39l-.91-2.71a.89.89,0,0,1,.29-1l2.69-1.61c.3-.18.64,0,.77.38l.92,2.71A.91.91,0,0,1,286.84,93.26Z" transform="translate(-271.02 -58.81)"/><path class="cls-43" d="M302.17,69l-2.72,1.51c-.3.17-.64,0-.77-.41l-.86-2.74a.9.9,0,0,1,.32-1l2.72-1.52c.3-.16.64,0,.76.42l.29.93.57,1.81A.88.88,0,0,1,302.17,69Z" transform="translate(-271.02 -58.81)"/><path class="cls-43" d="M295.77,104.79l-2.69,1.61c-.3.17-.64,0-.77-.39l-.92-2.71a.91.91,0,0,1,.29-1l2.7-1.61c.29-.17.63,0,.77.39l.91,2.71A.91.91,0,0,1,295.77,104.79Z" transform="translate(-271.02 -58.81)"/><path class="cls-43" d="M290.32,103.82l-2.69,1.61c-.3.17-.64,0-.77-.39l-.92-2.71a.89.89,0,0,1,.29-1l2.69-1.62c.3-.17.64,0,.78.39l.91,2.71A.91.91,0,0,1,290.32,103.82Z" transform="translate(-271.02 -58.81)"/><path class="cls-43" d="M292.08,109.14l-2.69,1.61c-.29.18-.64,0-.77-.39l-.91-2.71a.89.89,0,0,1,.29-1l2.69-1.62c.29-.17.64,0,.77.39l.92,2.71A.9.9,0,0,1,292.08,109.14Z" transform="translate(-271.02 -58.81)"/><polyline class="cls-44" points="17.76 48.95 16.48 51.95 18.38 57.74"/><path class="cls-45" d="M289.68,118.16h0c-.34.1-.67-.18-.74-.62h0a.85.85,0,0,1,.46-1h0c.33-.1.66.17.74.62h0A.85.85,0,0,1,289.68,118.16Z" transform="translate(-271.02 -58.81)"/><path class="cls-45" d="M286.91,108.89h0c-.33.1-.66-.18-.74-.62h0a.85.85,0,0,1,.46-1h0c.34-.1.67.17.74.61h0A.86.86,0,0,1,286.91,108.89Z" transform="translate(-271.02 -58.81)"/><path class="cls-45" d="M284.73,102.31h0c-.33.1-.66-.18-.74-.62h0a.85.85,0,0,1,.46-1h0c.33-.1.67.17.74.61h0A.86.86,0,0,1,284.73,102.31Z" transform="translate(-271.02 -58.81)"/><path class="cls-46" d="M308.06,77.29h0c-.24.07-.49-.13-.54-.46h0a.63.63,0,0,1,.34-.73h0c.24-.07.49.14.54.46h0A.63.63,0,0,1,308.06,77.29Z" transform="translate(-271.02 -58.81)"/><path class="cls-47" d="M275.88,98.5h0c-.34.1-.67-.18-.74-.62h0a.86.86,0,0,1,.46-1h0c.33-.1.66.18.74.62h0A.87.87,0,0,1,275.88,98.5Z" transform="translate(-271.02 -58.81)"/><path class="cls-47" d="M305.52,78.34h0c-.33.1-.66-.17-.74-.61h0a.87.87,0,0,1,.47-1h0c.33-.1.66.18.74.62h0A.87.87,0,0,1,305.52,78.34Z" transform="translate(-271.02 -58.81)"/><g class="cls-48"><path class="cls-49" d="M292.27,65.6a.8.8,0,0,1,0-.18,1.13,1.13,0,0,1,.61-1.3c.44-.14.88.23,1,.81a1.13,1.13,0,0,1-.61,1.31A.8.8,0,0,1,292.27,65.6Zm1.14-.64a.41.41,0,0,0-.48-.32.42.42,0,0,0-.26.25.71.71,0,0,0-.05.41.53.53,0,0,0,.19.35.32.32,0,0,0,.31.07.59.59,0,0,0,.31-.67A.29.29,0,0,0,293.41,65Z" transform="translate(-271.02 -58.81)"/></g><polyline class="cls-50" points="19.05 44.6 15.28 46.76 14.16 48.91 16.73 56.59"/><polyline class="cls-50" points="18.28 44.38 14.32 46.64 13 49.03 15.86 57.48"/><ellipse class="cls-43" cx="286.95" cy="116.48" rx="0.19" ry="0.26" transform="translate(-272.52 -55.06) rotate(-0.75)"/><ellipse class="cls-43" cx="287.77" cy="115.4" rx="0.19" ry="0.26" transform="translate(-272.5 -55.05) rotate(-0.75)"/><g class="cls-51"><polyline class="cls-52" points="17.05 44.35 13.31 46.56 11.84 49.19 14.64 57.44"/><ellipse class="cls-49" cx="285.61" cy="116.27" rx="0.19" ry="0.26" transform="translate(-272.52 -55.08) rotate(-0.75)"/></g><g class="cls-51"><polyline class="cls-53" points="15.26 33.59 12.45 35.44 10.64 35.41 8.81 29.73"/><polyline class="cls-53" points="15.18 32.95 12.38 34.84 10.96 34.75 9.23 29.5"/><polyline class="cls-53" points="15.37 33.13 12.44 35.13 10.81 35.09 8.93 29.28"/><ellipse class="cls-49" cx="279.91" cy="87.96" rx="0.19" ry="0.14" transform="matrix(0.18, -0.98, 0.98, 0.18, -129.15, 288.06)"/><ellipse class="cls-49" cx="280.29" cy="88.27" rx="0.19" ry="0.14" transform="translate(-129.14 288.68) rotate(-79.38)"/><ellipse class="cls-49" cx="279.8" cy="88.58" rx="0.19" ry="0.14" transform="translate(-129.84 288.45) rotate(-79.38)"/></g><polyline class="cls-54" points="34.84 26.88 36.69 27.42 42 24.46 42.13 22.6 45.04 20.98 45.15 19.08 46.95 18.08"/><polyline class="cls-54" points="35.66 29.46 43.22 25.25 43.25 23.4 46.12 21.82 47.69 23.16 49.59 22.09"/><ellipse class="cls-55" cx="47.38" cy="17.85" rx="0.46" ry="0.61"/><ellipse class="cls-55" cx="50" cy="21.83" rx="0.46" ry="0.61"/><ellipse class="cls-55" cx="41.71" cy="56.87" rx="0.46" ry="0.61"/><polyline class="cls-56" points="22.55 68.86 23.77 69.46 27.07 67.74 27.06 66.32 28.87 65.37 28.88 63.91 30 63.33"/><polyline class="cls-56" points="23.87 70.54 28.56 68.08 28.52 66.65 30.32 65.71 31.37 66.92 32.53 66.31"/><ellipse class="cls-57" cx="301.28" cy="122.02" rx="0.29" ry="0.48" transform="translate(-287.25 -6.4) rotate(-9.68)"/><ellipse class="cls-57" cx="303.81" cy="124.97" rx="0.29" ry="0.48" transform="translate(-287.71 -5.93) rotate(-9.68)"/><ellipse class="cls-58" cx="276.67" cy="107.71" rx="0.34" ry="0.27" transform="translate(-243.59 210.22) rotate(-54.19)"/><ellipse class="cls-58" cx="275.6" cy="108.83" rx="0.34" ry="0.27" transform="translate(-244.95 209.82) rotate(-54.19)"/><path class="cls-59" d="M318,74.53a.55.55,0,0,0-.22.4l-2.88,1.6-.66-2.09-3.68,2L309.74,79l-.27.15.85-3.27,3.67-2-.15-.5L310,75.44l-1,4-.4.22,1.17-4.68,4.57-2.54.94,3,1.94-1h0a.23.23,0,0,0,.18,0,.39.39,0,0,0,.13-.45c-.05-.18-.2-.26-.33-.19a.3.3,0,0,0-.12.17v0l-1.57.82-.94-3-5.12,2.84-1.33,5.35-2.29,1.27.16.5L310,79.37l.79-2.47L314,75.15l.65,2.08,3.25-1.81a.31.31,0,0,0,.37.07.6.6,0,0,0,.21-.68C318.39,74.55,318.16,74.42,318,74.53Zm.25.78c-.13.07-.27,0-.32-.17a.36.36,0,0,1,.13-.43.23.23,0,0,1,.32.17A.39.39,0,0,1,318.21,75.31Z" transform="translate(-271.02 -58.81)"/><path class="cls-59" d="M284.07,122.25a.54.54,0,0,0,.22-.4l2.89-1.58.65,2.09,3.68-2,.8-2.46.27-.15-.87,3.26L288,123l.16.5L292,121.4l1.05-3.94.4-.22-1.19,4.67-4.58,2.51-.93-3-1.94,1h0a.19.19,0,0,0-.18,0,.4.4,0,0,0-.14.45c.06.17.21.25.34.18a.29.29,0,0,0,.12-.16v0l1.57-.82.93,3,5.13-2.81L294,117l2.29-1.26-.15-.49-4.1,2.25-.8,2.46-3.16,1.73-.65-2.09-3.26,1.79a.31.31,0,0,0-.37-.07.59.59,0,0,0-.21.68A.37.37,0,0,0,284.07,122.25Zm-.25-.78a.24.24,0,0,1,.33.17.37.37,0,0,1-.14.43.23.23,0,0,1-.32-.17A.38.38,0,0,1,283.82,121.47Z" transform="translate(-271.02 -58.81)"/><path class="cls-59" d="M279.75,90.8A.33.33,0,0,0,280,91l1,3-1.31.75,1.24,3.84,1.53.77.09.29-2-.82L279.25,95l-.31.17,1.29,4,2.45,1,.14.41-2.91-1.12-1.54-4.78,1.88-1.07-.62-2h0a.31.31,0,0,0,0-.19c-.05-.14-.17-.2-.28-.14a.32.32,0,0,0-.12.36.27.27,0,0,0,.1.13h0l.5,1.65-1.88,1.07,1.72,5.35,3.32,1.28.77,2.39.31-.18-1.38-4.28-1.53-.77L280.09,95l1.31-.75-1.1-3.4a.49.49,0,0,0,.05-.39.29.29,0,0,0-.42-.21A.47.47,0,0,0,279.75,90.8Zm.49-.28a.32.32,0,0,1-.11.35.19.19,0,0,1-.27-.13.31.31,0,0,1,.11-.35A.19.19,0,0,1,280.24,90.52Z" transform="translate(-271.02 -58.81)"/><g class="cls-60"><path class="cls-61" d="M293.78,62.65,295,66.53l-2.13,1.93,1.55,4.93-.31.18-1.66-5.27,2.13-1.93-1.14-3.64Z" transform="translate(-271.02 -58.81)"/></g><g class="cls-60"><polygon class="cls-61" points="9.86 53.94 13.09 57.58 13.35 57.17 10.21 53.67 6.15 41.03 3.67 40.24 2.13 35.45 1.76 35.66 3.38 40.7 5.86 41.49 9.86 53.94"/><polygon class="cls-61" points="13.76 56.21 11.1 53.56 9.7 49.2 10.98 46.39 9.87 42.94 8.35 42.21 5.19 32.1 4.82 32.31 8.04 42.63 9.57 43.37 10.53 46.35 9.5 48.6 3.91 31.16 3.54 31.38 9.24 49.16 9.29 49.29 10.77 53.91 13.52 56.64 13.76 56.21"/><polygon class="cls-61" points="5.72 51.5 9.58 59.63 9.95 59.42 7.32 54.54 8.32 55.59 10.66 59.01 11.03 58.8 8.67 55.31 6.88 53.18 6.15 51.48 7.08 47.73 9.3 54.66 12.54 58.3 12.8 57.89 9.66 54.39 5.6 41.75 3.11 40.96 1.47 35.84 1.1 36.05 2.82 41.42 5.31 42.21 6.84 46.99 5.72 51.5"/></g><ellipse class="cls-61" cx="10.93" cy="59.05" rx="0.23" ry="0.31"/><ellipse class="cls-61" cx="1.24" cy="35.75" rx="0.25" ry="0.33"/><ellipse class="cls-61" cx="1.91" cy="35.37" rx="0.25" ry="0.33"/><ellipse class="cls-61" cx="3.69" cy="31.14" rx="0.25" ry="0.33"/><ellipse class="cls-61" cx="4.97" cy="32.08" rx="0.25" ry="0.33"/><ellipse class="cls-61" cx="13.34" cy="57.45" rx="0.23" ry="0.31"/><ellipse class="cls-61" cx="9.79" cy="59.68" rx="0.23" ry="0.31"/><path class="cls-59" d="M325.85,89.35c0,.22.1.44.14.66a.5.5,0,0,1,0,.12l-3.62,2.15-2.72,5.6v.05l-.37-.48-.06,0,2.86-5.82Z" transform="translate(-271.02 -58.81)"/><path class="cls-59" d="M326.18,91l.09.48,0,.19a.51.51,0,0,1,0,.13L322.65,94l-2,4.84-.44-.5,2.1-5Z" transform="translate(-271.02 -58.81)"/><path class="cls-59" d="M321.32,90.46,325.53,88l.15.64a.61.61,0,0,1,0,.13l-4.08,2.41-2.74,5.66-.43-.53Z" transform="translate(-271.02 -58.81)"/><path class="cls-59" d="M320.61,89.18l-3.75,2.22h0l-.24-.63,0-.09,3.73-2.2,1-2.3-5.26,3.1v-.06l-.25-.66,0,0,7.82-4.63.8.46c.12.32.22.64.32,1l-1-.59-1.52.9Z" transform="translate(-271.02 -58.81)"/><ellipse class="cls-61" cx="316.58" cy="91.19" rx="0.28" ry="0.45" transform="translate(-283.15 10.32) rotate(-12.23)"/><ellipse class="cls-61" cx="319.39" cy="97.88" rx="0.28" ry="0.45" transform="translate(-284.51 11.06) rotate(-12.23)"/><ellipse class="cls-61" cx="315.8" cy="88.96" rx="0.28" ry="0.45" transform="translate(-282.7 10.1) rotate(-12.23)"/><polyline class="cls-44" points="13.59 39.27 11.4 40.59 13.33 46.19 16.07 44.41"/><polygon class="cls-62" points="4.86 47.61 4.46 46.31 3.96 46.29 3.26 44.03 3.4 43.32 3.59 43.21 3.22 42.03 2.25 42.57 2.62 43.75 2.63 43.75 3.64 47.03 4.15 47.03 4.51 48.19 4.12 48.91 4.39 49.8 4.51 49.74 4.27 48.97 4.66 48.25 4.22 46.83 3.72 46.83 2.75 43.68 3.24 43.41 3.12 44.02 3.88 46.49 4.38 46.51 4.79 47.81 5.3 47.84 5.53 48.58 5.65 48.51 5.38 47.64 4.86 47.61"/><polygon class="cls-63" points="37.67 64.7 35.27 66.04 33.75 61.2 36.15 59.86 37.67 64.7"/><polygon class="cls-64" points="16.78 8.17 15.96 5.52 19.11 3.79 19.92 6.44 16.78 8.17"/><polyline class="cls-65" points="30.89 7.38 33 6.21 34.33 10.43 33.32 15.41 34.07 17.78"/><polyline class="cls-65" points="30.68 8.41 34.23 6.44 35.38 10.09 35.56 10.67 34.58 14.93 35.7 18.5"/><polyline class="cls-65" points="34.96 13.27 35.62 13.81 36.69 17.22"/><path class="cls-62" d="M283.05,65.23l.63,1.87-5.87,3.43c-.26.32-.51.65-.75,1l7-4.08.22-.12,2-1.15-.15-.46-2,1.15-.34-1,2-1.14-.15-.46-2,1.15-.16-.45,0-.08.7-.42,1.26-.73,0-.08Z" transform="translate(-271.02 -58.81)"/><path class="cls-62" d="M275.74,73.87l-.29,0c.11-.17.23-.35.34-.54h.1l10.75-6.27,2,.48,1.58-.92.15.46-1.74,1-2-.48-10.42,6.07.39,1.17,10.59-6.17,2,.65,2.75-1.61.15.47-2.93,1.71-2-.66-10.85,6.33Z" transform="translate(-271.02 -58.81)"/><path class="cls-62" d="M292.42,69.35,289.64,71l-.95,2.31-1.75,1-.85-2.6-11.25,6.57-.7-2.09.35-.61.64,2L286.38,71l.86,2.59,1.11-.66.95-2.31,3-1.72Z" transform="translate(-271.02 -58.81)"/><path class="cls-62" d="M325,108.28l-10.42,6.08.39,1.17,10.59-6.18.56.19-.11.54-.48-.16-10.85,6.33-.57-1.74-.29,0,.34-.54h.1L325,107.73l1.39.33-.1.54Z" transform="translate(-271.02 -58.81)"/><path class="cls-62" d="M325.4,112.45c0,.24-.12.48-.19.72l0,.17-.3-.91L313.61,119l-.69-2.09c.11-.21.22-.41.34-.61l.65,2,11.25-6.56Z" transform="translate(-271.02 -58.81)"/><path class="cls-62" d="M282.54,77.66l.26.86-5,2.94.16,1.76-1.73,1-1.28-1.48-1.29.76c-.14-.23-.32-.33-.48-.24h0a.51.51,0,0,0-.2.36,1.14,1.14,0,0,0,.06.51c.12.36.37.56.57.45h0a.47.47,0,0,0,.2-.36,1.1,1.1,0,0,0,0-.31l1.1-.65,1.28,1.49,2.15-1.26-.16-1.75,4.8-2.82.58,1.86-1.06-.56-3.73,2.19.11,1.73-1.95,1.14.11,1.78-1.05.61c-.13-.24-.32-.36-.48-.27h0a.47.47,0,0,0-.19.36,1,1,0,0,0,.05.51c.12.37.37.56.57.45h0a.45.45,0,0,0,.2-.36.88.88,0,0,0,0-.28l1.27-.74-.11-1.79,1.95-1.14-.11-1.73,3.39-2,1.23.64.49,1.57,2.71-1.51-1.65-5.24Zm-8.93,6.52a.27.27,0,0,1-.09.2h0c-.11.07-.27-.09-.35-.33a.85.85,0,0,1,0-.38.27.27,0,0,1,.09-.2h0c.11-.06.27.09.35.34A.8.8,0,0,1,273.61,84.18Zm2.31,4.14a.32.32,0,0,1-.1.2h0c-.12.06-.28-.09-.36-.34a.84.84,0,0,1,0-.38s0-.16.1-.19h0c.11-.06.27.09.35.34A.85.85,0,0,1,275.92,88.32Zm10.53-7.15-2.09,1.16L283,77.9l2.09-1.17Z" transform="translate(-271.02 -58.81)"/><path class="cls-49" d="M304.72,92q2.56-4.94.58-11.55A18,18,0,0,0,303.86,77a11.82,11.82,0,0,0-1.92-2.64,7.2,7.2,0,0,0-2.17-1.58,4.22,4.22,0,0,0-2.65-.33l-.29.07-1.31-4.34-.65.34,1.27,4.2a12.6,12.6,0,0,0-2,.88l-1.24.67-1.73-5.72-1.22.65,1.72,5.72-3.22,1.72-1.21-4-.64.34,1.21,4-1.22.65a3.36,3.36,0,0,0-1.8,2.45,10.6,10.6,0,0,0,.59,4.55l10.75,32.74a8.72,8.72,0,0,0,1.91,3.81,2.08,2.08,0,0,0,2.59.13l2.62-1.4,1.53,5.09.65-.34-1.54-5.09,3.8-2,2.21,7.33,1.23-.66-2.21-7.32,4.13-2.21.3-.17,1.54,5.09.64-.34L314,114.14a16.3,16.3,0,0,0,2.18-1.54,9.08,9.08,0,0,0,2.09-2.5,12.86,12.86,0,0,0,1.39-5.81,22.64,22.64,0,0,0-1-7.2C317,91.76,310.49,89.82,304.72,92Zm-6.29-11.67c1.06.29,1.92,1.54,2.59,3.77a9.92,9.92,0,0,1,.46,3,5.5,5.5,0,0,1-.75,3.2,6.74,6.74,0,0,1-2.53,2.08l-4.32,2.31-3.44-11.39,3.83-2C296,80.37,297.38,80.06,298.43,80.34Zm12.38,27.72-10.37,5.54L299,108.79l3.82-2a2.4,2.4,0,0,0,3.11.49A3.84,3.84,0,0,0,307.8,103a2.38,2.38,0,0,0-3.57-1.35,3.91,3.91,0,0,0-1.93,2.73l-4,2.14-1.74-5.77,4.91-2.62c3.25-1.74,4.47-2.19,6.2-2.47a5.89,5.89,0,0,1,6,3.34C315.41,103.05,314,106.36,310.81,108.06Z" transform="translate(-271.02 -58.81)"/></g></svg>