<svg id="Layer_1" data-name="Layer 1" xmlns="http://www.w3.org/2000/svg" xmlns:xlink="http://www.w3.org/1999/xlink" viewBox="0 0 72.287 71.707"><defs><style>.cls-1{fill:none;}.cls-2{isolation:isolate;}.cls-3{clip-path:url(#clip-path);}.cls-4{fill:#4d4462;}.cls-5{fill:#776b92;}.cls-6{fill:#270032;}</style><clipPath id="clip-path" transform="translate(-53.015 -58.219)"><path class="cls-1" d="M119.966,111.707l-3.435,4.957c-5.923,8.55-16.232,13.836-28.117,13.213-19-1-34.845-16.723-35.385-35.129a30.34,30.34,0,0,1,5.322-18.314l3.435-4.958a30.343,30.343,0,0,0-5.322,18.315C57,108.2,72.846,123.923,91.849,124.919,103.734,125.542,114.042,120.256,119.966,111.707Z"/></clipPath></defs><title>purple coin simplfied</title><g class="cls-2"><g class="cls-2"><g class="cls-3"><g class="cls-2"><path class="cls-4" d="M119.966,111.707l-3.435,4.957c-5.923,8.55-16.232,13.836-28.117,13.213-19-1-34.845-16.723-35.385-35.129a30.34,30.34,0,0,1,5.322-18.314l3.435-4.958a30.343,30.343,0,0,0-5.322,18.315C57,108.2,72.846,123.923,91.849,124.919c11.885.623,22.193-4.663,28.117-13.212" transform="translate(-53.015 -58.219)"/></g></g></g><path class="cls-5" d="M89.894,58.269c19,1,34.854,16.723,35.394,35.129s-14.435,32.517-33.439,31.521S57,108.2,56.464,89.791,70.89,57.273,89.894,58.269Z" transform="translate(-53.015 -58.219)"/></g><path class="cls-6" d="M97.272,88.88q3.711-4.148,2-10.445a14.2,14.2,0,0,0-1.379-3.36,11.78,11.78,0,0,0-2.068-2.665,9.145,9.145,0,0,0-2.5-1.733,6.946,6.946,0,0,0-3.218-.661c-.119,0-.247.018-.37.026L88.608,65.91l-.83.226,1.088,3.993a19.5,19.5,0,0,0-2.591.531L84.67,71.1l-1.483-5.44-1.578.43,1.482,5.441L78.94,72.659,77.9,68.829l-.831.227,1.044,3.829-1.567.427A3.342,3.342,0,0,0,74.057,75.3a7.279,7.279,0,0,0,.217,4.23l9.573,31.278a7.438,7.438,0,0,0,1.93,3.732,3.3,3.3,0,0,0,3.178.472l3.373-.919,1.319,4.841.831-.226-1.319-4.842,4.9-1.335,1.9,6.974,1.578-.431-1.9-6.973,5.33-1.453c.135-.037.259-.076.391-.114l1.321,4.849.831-.227-1.326-4.866a21.562,21.562,0,0,0,2.852-1.1,10.047,10.047,0,0,0,2.847-1.991,9.519,9.519,0,0,0,2.349-5.114,15.625,15.625,0,0,0-.437-6.692C112.411,90.31,104.613,87.659,97.272,88.88ZM90.84,77.4q1.9.6,2.769,3.781a7.036,7.036,0,0,1,.221,2.83,4.129,4.129,0,0,1-1.271,2.806,8.543,8.543,0,0,1-3.35,1.559l-5.573,1.519L80.679,79.042,85.617,77.7A9.591,9.591,0,0,1,90.84,77.4Zm12.141,26.933-13.369,3.644-1.249-4.585,4.922-1.342a3.7,3.7,0,0,0,3.773.872c1.939-.528,3.184-2.151,2.783-3.625s-2.3-2.241-4.238-1.713a3.9,3.9,0,0,0-2.683,2.225l-5.151,1.4-1.5-5.486L92.605,94c4.187-1.141,5.739-1.392,7.89-1.41.684-.006,5.431.382,6.961,3.851C109.2,100.383,107.093,103.209,102.981,104.329Z" transform="translate(-53.015 -58.219)"/></svg>