<svg xmlns="http://www.w3.org/2000/svg" xmlns:xlink="http://www.w3.org/1999/xlink" viewBox="0 0 197.16 221.41"><defs><style>.cls-1,.cls-5{fill:#b5358e;}.cls-2{fill:url(#linear-gradient);}.cls-3{fill:#efda5f;}.cls-4{opacity:0.1;}.cls-12,.cls-5{opacity:0.5;}.cls-10,.cls-6{fill:none;}.cls-6{stroke:#412210;stroke-miterlimit:10;stroke-width:2px;}.cls-7{fill:#047039;}.cls-8{fill:#1a2549;}.cls-9{fill:#71bc4b;}.cls-11{fill:#412210;}.cls-12{fill:#231916;}.cls-13{fill:#c9a063;}</style><linearGradient id="linear-gradient" x1="409.11" y1="319.02" x2="410.02" y2="433.39" gradientUnits="userSpaceOnUse"><stop offset="0" stop-color="#e8ba5e"/><stop offset="0.11" stop-color="#d7ac57"/><stop offset="0.32" stop-color="#ab8945"/><stop offset="0.62" stop-color="#645029"/><stop offset="0.99" stop-color="#040301"/><stop offset="1"/></linearGradient></defs><title>logo test</title><g id="island"><path class="cls-1" d="M379.45,315.48v.34s0-.15,0-.34Z" transform="translate(-304.82 -162.71)"/><path class="cls-2" d="M502,294.32A110.09,110.09,0,0,1,492.09,322a106.27,106.27,0,0,1-16.64,23.62c-11.41,7.53-23.73,15.94-39.56,24.57a125.57,125.57,0,0,1-27,11.29c-27.09,7.38-41.47-2.49-56.57-5.48a46.9,46.9,0,0,1-11.78-4.39c-6.13-3.48-11.51-13-13.94-22.21a443.42,443.42,0,0,1-10.78-55,9.18,9.18,0,0,1,2.43-6.18,8.08,8.08,0,0,1,5.88-2.56H493.66A8.54,8.54,0,0,1,502,294.32Z" transform="translate(-304.82 -162.71)"/><path class="cls-3" d="M397.19,376Z" transform="translate(-304.82 -162.71)"/><path class="cls-3" d="M530.28,359.9Z" transform="translate(-304.82 -162.71)"/><path class="cls-4" d="M502,294.94a109.69,109.69,0,0,1-9.89,27.64,105.94,105.94,0,0,1-16.64,23.62c-11.41,7.53-23.73,15.94-39.56,24.57a125.57,125.57,0,0,1-27,11.29V286.2h84.75A8.53,8.53,0,0,1,502,294.94Z" transform="translate(-304.82 -162.71)"/><rect class="cls-5" x="16.03" y="115.78" width="173.89" height="7.3"/><path class="cls-1" d="M344.21,286.46h.51v-6.15a37,37,0,0,0-.26-4.08h0a37.09,37.09,0,0,0-.25,4.08Z" transform="translate(-304.82 -162.71)"/><path class="cls-1" d="M338.83,286.46h1.52v-8.27c0-.22-.34-5.49-.76-5.49h0c-.42,0-.76,5.27-.76,5.49Z" transform="translate(-304.82 -162.71)"/><path class="cls-1" d="M342,286.46h1.52v-8.27c0-.22-.34-5.49-.76-5.49h0c-.42,0-.76,5.27-.76,5.49Z" transform="translate(-304.82 -162.71)"/><path class="cls-1" d="M332,286.46h1.52v-8.27c0-.22-.34-5.49-.76-5.49h0c-.42,0-.76,5.27-.76,5.49Z" transform="translate(-304.82 -162.71)"/><path class="cls-1" d="M335.11,286.46h1.52v-8.27c0-.22-.34-5.49-.76-5.49h0c-.42,0-.76,5.27-.76,5.49Z" transform="translate(-304.82 -162.71)"/><path class="cls-1" d="M335.89,286.46h2.94v-9.68c0-.26-.67-6.43-1.49-6.43h0c-.81,0-1.46,6.17-1.46,6.43Z" transform="translate(-304.82 -162.71)"/><path class="cls-1" d="M354.45,286.46H355v-6.15a37.09,37.09,0,0,0-.25-4.08h0a37,37,0,0,0-.26,4.08Z" transform="translate(-304.82 -162.71)"/><path class="cls-1" d="M349.08,286.46h1.51v-8.27c0-.22-.34-5.49-.76-5.49h0c-.41,0-.75,5.27-.75,5.49Z" transform="translate(-304.82 -162.71)"/><path class="cls-1" d="M352.25,286.46h1.52v-8.27c0-.22-.34-5.49-.76-5.49h0c-.42,0-.76,5.27-.76,5.49Z" transform="translate(-304.82 -162.71)"/><path class="cls-1" d="M342.26,286.46h1.52v-8.27c0-.22-.34-5.49-.76-5.49h0c-.42,0-.76,5.27-.76,5.49Z" transform="translate(-304.82 -162.71)"/><path class="cls-1" d="M345.35,286.46h1.52v-8.27c0-.22-.34-5.49-.76-5.49h0c-.42,0-.76,5.27-.76,5.49Z" transform="translate(-304.82 -162.71)"/><path class="cls-1" d="M346.13,286.46h2.95l0-9.68c0-.26-.67-6.43-1.48-6.43h0c-.82,0-1.47,6.17-1.47,6.43Z" transform="translate(-304.82 -162.71)"/><path class="cls-1" d="M367.41,286.46h.65v-7.85a47.36,47.36,0,0,0-.32-5.22h0a47.27,47.27,0,0,0-.33,5.22Z" transform="translate(-304.82 -162.71)"/><path class="cls-1" d="M360.53,286.46h1.94V275.91c0-.29-.43-7-1-7h0c-.54,0-1,6.72-1,7Z" transform="translate(-304.82 -162.71)"/><path class="cls-1" d="M364.6,286.46h1.94V275.91c0-.29-.44-7-1-7h0c-.54,0-1,6.72-1,7Z" transform="translate(-304.82 -162.71)"/><path class="cls-1" d="M351.81,286.46h1.94V275.91c0-.29-.44-7-1-7h0c-.54,0-1,6.72-1,7Z" transform="translate(-304.82 -162.71)"/><path class="cls-1" d="M355.76,286.46h1.94V275.91c0-.29-.43-7-1-7h0c-.53,0-1,6.72-1,7Z" transform="translate(-304.82 -162.71)"/><path class="cls-1" d="M356.75,286.46h3.78l0-12.36c0-.33-.86-8.21-1.9-8.21h0c-1,0-1.88,7.88-1.88,8.21Z" transform="translate(-304.82 -162.71)"/><path class="cls-1" d="M343.41,286.46h.65v-7.85a47.36,47.36,0,0,0-.32-5.22h0a47.27,47.27,0,0,0-.33,5.22Z" transform="translate(-304.82 -162.71)"/><path class="cls-1" d="M336.53,286.46h1.94V275.91c0-.29-.43-7-1-7h0c-.54,0-1,6.72-1,7Z" transform="translate(-304.82 -162.71)"/><path class="cls-1" d="M340.6,286.46h1.94V275.91c0-.29-.44-7-1-7h0c-.54,0-1,6.72-1,7Z" transform="translate(-304.82 -162.71)"/><path class="cls-1" d="M327.81,286.46h1.94V275.91c0-.29-.44-7-1-7h0c-.54,0-1,6.72-1,7Z" transform="translate(-304.82 -162.71)"/><path class="cls-1" d="M331.76,286.46h1.94V275.91c0-.29-.43-7-1-7h0c-.53,0-1,6.72-1,7Z" transform="translate(-304.82 -162.71)"/><path class="cls-1" d="M332.75,286.46h3.78l0-12.36c0-.33-.86-8.21-1.9-8.21h0c-1,0-1.88,7.88-1.88,8.21Z" transform="translate(-304.82 -162.71)"/><path class="cls-1" d="M333,286.46h.51v-6.15a37.09,37.09,0,0,0-.25-4.08h0a37,37,0,0,0-.26,4.08Z" transform="translate(-304.82 -162.71)"/><path class="cls-1" d="M327.66,286.46h1.51v-8.27c0-.22-.34-5.49-.76-5.49h0c-.41,0-.75,5.27-.75,5.49Z" transform="translate(-304.82 -162.71)"/><path class="cls-1" d="M330.83,286.46h1.52v-8.27c0-.22-.34-5.49-.76-5.49h0c-.42,0-.76,5.27-.76,5.49Z" transform="translate(-304.82 -162.71)"/><path class="cls-1" d="M320.84,286.46h1.52v-8.27c0-.22-.34-5.49-.76-5.49h0c-.42,0-.76,5.27-.76,5.49Z" transform="translate(-304.82 -162.71)"/><path class="cls-1" d="M323.93,286.46h1.52v-8.27c0-.22-.34-5.49-.76-5.49h0c-.42,0-.76,5.27-.76,5.49Z" transform="translate(-304.82 -162.71)"/><path class="cls-1" d="M324.71,286.46h3l0-9.68c0-.26-.67-6.43-1.48-6.43h0c-.82,0-1.47,6.17-1.47,6.43Z" transform="translate(-304.82 -162.71)"/><path class="cls-1" d="M372.91,286.46h.51v-6.15a37.28,37.28,0,0,0-.25-4.09h0a37.2,37.2,0,0,0-.26,4.09Z" transform="translate(-304.82 -162.71)"/><path class="cls-1" d="M367.54,286.46h1.51v-8.27c0-.22-.34-5.49-.75-5.49h0c-.42,0-.76,5.27-.76,5.49Z" transform="translate(-304.82 -162.71)"/><path class="cls-1" d="M370.72,286.46h1.51v-8.27c0-.22-.34-5.49-.76-5.49h0c-.42,0-.75,5.27-.75,5.49Z" transform="translate(-304.82 -162.71)"/><path class="cls-1" d="M360.73,286.46h1.51v-8.27c0-.22-.34-5.49-.76-5.49h0c-.41,0-.75,5.27-.75,5.49Z" transform="translate(-304.82 -162.71)"/><path class="cls-1" d="M363.82,286.46h1.51v-8.27c0-.22-.34-5.49-.76-5.49h0c-.41,0-.75,5.27-.75,5.49Z" transform="translate(-304.82 -162.71)"/><path class="cls-1" d="M364.59,286.46h3l0-9.68c0-.26-.67-6.43-1.48-6.43h0c-.82,0-1.47,6.17-1.47,6.43Z" transform="translate(-304.82 -162.71)"/><path class="cls-1" d="M383.15,286.46h.51v-6.15a37.28,37.28,0,0,0-.25-4.09h0a37.2,37.2,0,0,0-.26,4.09Z" transform="translate(-304.82 -162.71)"/><path class="cls-1" d="M377.78,286.46h1.52v-8.27c0-.22-.34-5.49-.76-5.49h0c-.42,0-.76,5.27-.76,5.49Z" transform="translate(-304.82 -162.71)"/><path class="cls-1" d="M381,286.46h1.51v-8.27c0-.22-.34-5.49-.75-5.49h0c-.42,0-.76,5.27-.76,5.49Z" transform="translate(-304.82 -162.71)"/><path class="cls-1" d="M371,286.46h1.51v-8.27c0-.22-.34-5.49-.75-5.49h0c-.42,0-.76,5.27-.76,5.49Z" transform="translate(-304.82 -162.71)"/><path class="cls-1" d="M374.06,286.46h1.51v-8.27c0-.22-.34-5.49-.75-5.49h0c-.42,0-.76,5.27-.76,5.49Z" transform="translate(-304.82 -162.71)"/><path class="cls-1" d="M374.83,286.46h2.95l0-9.68c0-.26-.67-6.43-1.48-6.43h0c-.81,0-1.46,6.17-1.46,6.43Z" transform="translate(-304.82 -162.71)"/><path class="cls-1" d="M396.11,286.46h.65v-7.85a47.36,47.36,0,0,0-.32-5.22h0a47.27,47.27,0,0,0-.33,5.22Z" transform="translate(-304.82 -162.71)"/><path class="cls-1" d="M389.23,286.46h1.94V275.91c0-.29-.43-7-1-7h0c-.53,0-1,6.72-1,7Z" transform="translate(-304.82 -162.71)"/><path class="cls-1" d="M393.3,286.46h1.94V275.91c0-.29-.43-7-1-7h0c-.54,0-1,6.72-1,7Z" transform="translate(-304.82 -162.71)"/><path class="cls-1" d="M380.51,286.46h1.94V275.91c0-.29-.43-7-1-7h0c-.54,0-1,6.72-1,7Z" transform="translate(-304.82 -162.71)"/><path class="cls-1" d="M384.47,286.46h1.94V275.91c0-.29-.44-7-1-7h0c-.54,0-1,6.72-1,7Z" transform="translate(-304.82 -162.71)"/><path class="cls-1" d="M385.46,286.46h3.77l0-12.36c0-.33-.86-8.21-1.9-8.21h0c-1,0-1.87,7.88-1.87,8.21Z" transform="translate(-304.82 -162.71)"/><path class="cls-1" d="M372.11,286.46h.65v-7.85a47.36,47.36,0,0,0-.32-5.22h0a47.27,47.27,0,0,0-.33,5.22Z" transform="translate(-304.82 -162.71)"/><path class="cls-1" d="M365.23,286.46h1.94V275.91c0-.29-.43-7-1-7h0c-.53,0-1,6.72-1,7Z" transform="translate(-304.82 -162.71)"/><path class="cls-1" d="M369.3,286.46h1.94V275.91c0-.29-.43-7-1-7h0c-.54,0-1,6.72-1,7Z" transform="translate(-304.82 -162.71)"/><path class="cls-1" d="M356.51,286.46h1.94V275.91c0-.29-.43-7-1-7h0c-.54,0-1,6.72-1,7Z" transform="translate(-304.82 -162.71)"/><path class="cls-1" d="M360.47,286.46h1.94V275.91c0-.29-.44-7-1-7h0c-.54,0-1,6.72-1,7Z" transform="translate(-304.82 -162.71)"/><path class="cls-1" d="M361.46,286.46h3.77l0-12.36c0-.33-.86-8.21-1.9-8.21h0c-1,0-1.87,7.88-1.87,8.21Z" transform="translate(-304.82 -162.71)"/><path class="cls-1" d="M361.74,286.46h.5v-6.15a37.28,37.28,0,0,0-.25-4.09h0a37.28,37.28,0,0,0-.25,4.09Z" transform="translate(-304.82 -162.71)"/><path class="cls-1" d="M356.36,286.46h1.52v-8.27c0-.22-.34-5.49-.76-5.49h0c-.42,0-.76,5.27-.76,5.49Z" transform="translate(-304.82 -162.71)"/><path class="cls-1" d="M359.54,286.46h1.51v-8.27c0-.22-.34-5.49-.75-5.49h0c-.42,0-.76,5.27-.76,5.49Z" transform="translate(-304.82 -162.71)"/><path class="cls-1" d="M349.55,286.46h1.51v-8.27c0-.22-.33-5.49-.75-5.49h0c-.42,0-.76,5.27-.76,5.49Z" transform="translate(-304.82 -162.71)"/><path class="cls-1" d="M352.64,286.46h1.51v-8.27c0-.22-.34-5.49-.75-5.49h0c-.42,0-.76,5.27-.76,5.49Z" transform="translate(-304.82 -162.71)"/><path class="cls-1" d="M353.41,286.46h2.95l0-9.68c0-.26-.67-6.43-1.48-6.43h0c-.81,0-1.46,6.17-1.46,6.43Z" transform="translate(-304.82 -162.71)"/><path class="cls-1" d="M471.2,286.46h.51v-6.15a37.28,37.28,0,0,0-.25-4.09h0a37.2,37.2,0,0,0-.26,4.09Z" transform="translate(-304.82 -162.71)"/><path class="cls-1" d="M465.83,286.46h1.51v-8.27c0-.22-.33-5.49-.75-5.49h0c-.42,0-.76,5.27-.76,5.49Z" transform="translate(-304.82 -162.71)"/><path class="cls-1" d="M469,286.46h1.51v-8.27c0-.22-.34-5.49-.76-5.49h0c-.41,0-.75,5.27-.75,5.49Z" transform="translate(-304.82 -162.71)"/><path class="cls-1" d="M459,286.46h1.51v-8.27c0-.22-.34-5.49-.75-5.49h0c-.42,0-.76,5.27-.76,5.49Z" transform="translate(-304.82 -162.71)"/><path class="cls-1" d="M462.11,286.46h1.51v-8.27c0-.22-.34-5.49-.76-5.49h0c-.41,0-.75,5.27-.75,5.49Z" transform="translate(-304.82 -162.71)"/><path class="cls-1" d="M462.88,286.46h2.95l0-9.68c0-.26-.67-6.43-1.48-6.43h0c-.82,0-1.47,6.17-1.47,6.43Z" transform="translate(-304.82 -162.71)"/><path class="cls-1" d="M481.45,286.46h.5v-6.15a37.28,37.28,0,0,0-.25-4.09h0a37.28,37.28,0,0,0-.25,4.09Z" transform="translate(-304.82 -162.71)"/><path class="cls-1" d="M476.07,286.46h1.52v-8.27c0-.22-.34-5.49-.76-5.49h0c-.42,0-.76,5.27-.76,5.49Z" transform="translate(-304.82 -162.71)"/><path class="cls-1" d="M479.25,286.46h1.51v-8.27c0-.22-.34-5.49-.75-5.49h0c-.42,0-.76,5.27-.76,5.49Z" transform="translate(-304.82 -162.71)"/><path class="cls-1" d="M469.26,286.46h1.52v-8.27c0-.22-.34-5.49-.76-5.49h0c-.42,0-.76,5.27-.76,5.49Z" transform="translate(-304.82 -162.71)"/><path class="cls-1" d="M472.35,286.46h1.52v-8.27c0-.22-.34-5.49-.76-5.49h0c-.42,0-.76,5.27-.76,5.49Z" transform="translate(-304.82 -162.71)"/><path class="cls-1" d="M473.12,286.46h2.95l0-9.68c0-.26-.67-6.43-1.48-6.43h0c-.81,0-1.46,6.17-1.46,6.43Z" transform="translate(-304.82 -162.71)"/><path class="cls-1" d="M494.4,286.46h.65v-7.85a47.36,47.36,0,0,0-.32-5.22h0a47.27,47.27,0,0,0-.33,5.22Z" transform="translate(-304.82 -162.71)"/><path class="cls-1" d="M487.52,286.46h1.94V275.91c0-.29-.43-7-1-7h0c-.53,0-1,6.72-1,7Z" transform="translate(-304.82 -162.71)"/><path class="cls-1" d="M491.59,286.46h1.94V275.91c0-.29-.43-7-1-7h0c-.53,0-1,6.72-1,7Z" transform="translate(-304.82 -162.71)"/><path class="cls-1" d="M478.8,286.46h1.94V275.91c0-.29-.43-7-1-7h0c-.53,0-1,6.72-1,7Z" transform="translate(-304.82 -162.71)"/><path class="cls-1" d="M482.76,286.46h1.94V275.91c0-.29-.44-7-1-7h0c-.54,0-1,6.72-1,7Z" transform="translate(-304.82 -162.71)"/><path class="cls-1" d="M483.75,286.46h3.77l0-12.36c0-.33-.86-8.21-1.9-8.21h0c-1,0-1.87,7.88-1.87,8.21Z" transform="translate(-304.82 -162.71)"/><path class="cls-1" d="M470.4,286.46h.65v-7.85a47.36,47.36,0,0,0-.32-5.22h0a47.27,47.27,0,0,0-.33,5.22Z" transform="translate(-304.82 -162.71)"/><path class="cls-1" d="M463.52,286.46h1.94V275.91c0-.29-.43-7-1-7h0c-.53,0-1,6.72-1,7Z" transform="translate(-304.82 -162.71)"/><path class="cls-1" d="M467.59,286.46h1.94V275.91c0-.29-.43-7-1-7h0c-.53,0-1,6.72-1,7Z" transform="translate(-304.82 -162.71)"/><path class="cls-1" d="M454.8,286.46h1.94V275.91c0-.29-.43-7-1-7h0c-.53,0-1,6.72-1,7Z" transform="translate(-304.82 -162.71)"/><path class="cls-1" d="M458.76,286.46h1.94V275.91c0-.29-.44-7-1-7h0c-.54,0-1,6.72-1,7Z" transform="translate(-304.82 -162.71)"/><path class="cls-1" d="M459.75,286.46h3.77l0-12.36c0-.33-.86-8.21-1.9-8.21h0c-1,0-1.87,7.88-1.87,8.21Z" transform="translate(-304.82 -162.71)"/><path class="cls-1" d="M460,286.46h.5v-6.15a37.28,37.28,0,0,0-.25-4.09h0a37.28,37.28,0,0,0-.25,4.09Z" transform="translate(-304.82 -162.71)"/><path class="cls-1" d="M454.65,286.46h1.52v-8.27c0-.22-.34-5.49-.76-5.49h0c-.42,0-.76,5.27-.76,5.49Z" transform="translate(-304.82 -162.71)"/><path class="cls-1" d="M457.83,286.46h1.51v-8.27c0-.22-.33-5.49-.75-5.49h0c-.42,0-.76,5.27-.76,5.49Z" transform="translate(-304.82 -162.71)"/><path class="cls-1" d="M447.84,286.46h1.52v-8.27c0-.22-.34-5.49-.76-5.49h0c-.42,0-.76,5.27-.76,5.49Z" transform="translate(-304.82 -162.71)"/><path class="cls-1" d="M450.93,286.46h1.52v-8.27c0-.22-.34-5.49-.76-5.49h0c-.42,0-.76,5.27-.76,5.49Z" transform="translate(-304.82 -162.71)"/><path class="cls-1" d="M451.7,286.46h2.95l0-9.68c0-.26-.67-6.43-1.48-6.43h0c-.81,0-1.46,6.17-1.46,6.43Z" transform="translate(-304.82 -162.71)"/><path class="cls-1" d="M387.31,286.51h.51v-6.15a37.28,37.28,0,0,0-.25-4.09h0a37.2,37.2,0,0,0-.26,4.09Z" transform="translate(-304.82 -162.71)"/><path class="cls-1" d="M381.94,286.51h1.51v-8.27c0-.22-.34-5.49-.76-5.49h0c-.41,0-.75,5.27-.75,5.49Z" transform="translate(-304.82 -162.71)"/><path class="cls-1" d="M385.11,286.51h1.52v-8.27c0-.22-.34-5.49-.76-5.49h0c-.42,0-.76,5.27-.76,5.49Z" transform="translate(-304.82 -162.71)"/><path class="cls-1" d="M375.12,286.51h1.52v-8.27c0-.22-.34-5.49-.76-5.49h0c-.42,0-.76,5.27-.76,5.49Z" transform="translate(-304.82 -162.71)"/><path class="cls-1" d="M378.21,286.51h1.52v-8.27c0-.22-.34-5.49-.76-5.49h0c-.42,0-.76,5.27-.76,5.49Z" transform="translate(-304.82 -162.71)"/><path class="cls-1" d="M379,286.51h2.95l0-9.69c0-.26-.67-6.43-1.48-6.43h0c-.82,0-1.47,6.17-1.47,6.43Z" transform="translate(-304.82 -162.71)"/><path class="cls-1" d="M397.55,286.51h.51v-6.15a37.28,37.28,0,0,0-.25-4.09h0a37.2,37.2,0,0,0-.26,4.09Z" transform="translate(-304.82 -162.71)"/><path class="cls-1" d="M392.18,286.51h1.51v-8.27c0-.22-.33-5.49-.75-5.49h0c-.42,0-.76,5.27-.76,5.49Z" transform="translate(-304.82 -162.71)"/><path class="cls-1" d="M395.36,286.51h1.51v-8.27c0-.22-.34-5.49-.76-5.49h0c-.41,0-.75,5.27-.75,5.49Z" transform="translate(-304.82 -162.71)"/><path class="cls-1" d="M385.37,286.51h1.51v-8.27c0-.22-.34-5.49-.76-5.49h0c-.41,0-.75,5.27-.75,5.49Z" transform="translate(-304.82 -162.71)"/><path class="cls-1" d="M388.46,286.51H390v-8.27c0-.22-.34-5.49-.76-5.49h0c-.41,0-.75,5.27-.75,5.49Z" transform="translate(-304.82 -162.71)"/><path class="cls-1" d="M389.23,286.51h2.95l0-9.69c0-.26-.67-6.43-1.48-6.43h0c-.82,0-1.47,6.17-1.47,6.43Z" transform="translate(-304.82 -162.71)"/><path class="cls-1" d="M410.51,286.51h.65v-7.86a47.17,47.17,0,0,0-.32-5.21h0a47.09,47.09,0,0,0-.33,5.21Z" transform="translate(-304.82 -162.71)"/><path class="cls-1" d="M403.63,286.51h1.94V276c0-.28-.43-7-1-7h0c-.54,0-1,6.73-1,7Z" transform="translate(-304.82 -162.71)"/><path class="cls-1" d="M407.7,286.51h1.94V276c0-.28-.43-7-1-7h0c-.54,0-1,6.73-1,7Z" transform="translate(-304.82 -162.71)"/><path class="cls-1" d="M394.91,286.51h1.94V276c0-.28-.43-7-1-7h0c-.54,0-1,6.73-1,7Z" transform="translate(-304.82 -162.71)"/><path class="cls-1" d="M398.86,286.51h1.95V276c0-.28-.44-7-1-7h0c-.54,0-1,6.73-1,7Z" transform="translate(-304.82 -162.71)"/><path class="cls-1" d="M399.86,286.51h3.77l0-12.36c0-.34-.86-8.21-1.9-8.21h0c-1,0-1.87,7.87-1.87,8.21Z" transform="translate(-304.82 -162.71)"/><path class="cls-1" d="M386.51,286.51h.65v-7.86a47.17,47.17,0,0,0-.32-5.21h0a47.09,47.09,0,0,0-.33,5.21Z" transform="translate(-304.82 -162.71)"/><path class="cls-1" d="M379.63,286.51h1.94V276c0-.28-.43-7-1-7h0c-.54,0-1,6.73-1,7Z" transform="translate(-304.82 -162.71)"/><path class="cls-1" d="M383.7,286.51h1.94V276c0-.28-.43-7-1-7h0c-.54,0-1,6.73-1,7Z" transform="translate(-304.82 -162.71)"/><path class="cls-1" d="M370.91,286.51h1.94V276c0-.28-.43-7-1-7h0c-.54,0-1,6.73-1,7Z" transform="translate(-304.82 -162.71)"/><path class="cls-1" d="M374.86,286.51h1.95V276c0-.28-.44-7-1-7h0c-.54,0-1,6.73-1,7Z" transform="translate(-304.82 -162.71)"/><path class="cls-1" d="M375.86,286.51h3.77l0-12.36c0-.34-.86-8.21-1.9-8.21h0c-1,0-1.87,7.87-1.87,8.21Z" transform="translate(-304.82 -162.71)"/><path class="cls-1" d="M376.13,286.51h.51v-6.15a37.28,37.28,0,0,0-.25-4.09h0a37.2,37.2,0,0,0-.26,4.09Z" transform="translate(-304.82 -162.71)"/><path class="cls-1" d="M370.76,286.51h1.51v-8.27c0-.22-.33-5.49-.75-5.49h0c-.42,0-.76,5.27-.76,5.49Z" transform="translate(-304.82 -162.71)"/><path class="cls-1" d="M373.94,286.51h1.51v-8.27c0-.22-.34-5.49-.76-5.49h0c-.41,0-.75,5.27-.75,5.49Z" transform="translate(-304.82 -162.71)"/><path class="cls-1" d="M364,286.51h1.51v-8.27c0-.22-.34-5.49-.76-5.49h0c-.41,0-.75,5.27-.75,5.49Z" transform="translate(-304.82 -162.71)"/><path class="cls-1" d="M367,286.51h1.51v-8.27c0-.22-.34-5.49-.76-5.49h0c-.41,0-.75,5.27-.75,5.49Z" transform="translate(-304.82 -162.71)"/><path class="cls-1" d="M367.81,286.51h2.95l0-9.69c0-.26-.67-6.43-1.48-6.43h0c-.82,0-1.47,6.17-1.47,6.43Z" transform="translate(-304.82 -162.71)"/><path class="cls-1" d="M425.23,286.46h.51v-6.15a37.28,37.28,0,0,0-.25-4.09h0a37.2,37.2,0,0,0-.26,4.09Z" transform="translate(-304.82 -162.71)"/><path class="cls-1" d="M419.86,286.46h1.52v-8.27c0-.22-.34-5.49-.76-5.49h0c-.42,0-.76,5.27-.76,5.49Z" transform="translate(-304.82 -162.71)"/><path class="cls-1" d="M423,286.46h1.51v-8.27c0-.22-.34-5.49-.75-5.49h0c-.42,0-.76,5.27-.76,5.49Z" transform="translate(-304.82 -162.71)"/><path class="cls-1" d="M413.05,286.46h1.51v-8.27c0-.22-.34-5.49-.75-5.49h0c-.42,0-.76,5.27-.76,5.49Z" transform="translate(-304.82 -162.71)"/><path class="cls-1" d="M416.14,286.46h1.51v-8.27c0-.22-.34-5.49-.75-5.49h0c-.42,0-.76,5.27-.76,5.49Z" transform="translate(-304.82 -162.71)"/><path class="cls-1" d="M416.91,286.46h2.95l0-9.68c0-.26-.67-6.43-1.48-6.43h0c-.81,0-1.46,6.17-1.46,6.43Z" transform="translate(-304.82 -162.71)"/><path class="cls-1" d="M435.48,286.46h.5v-6.15a37.28,37.28,0,0,0-.25-4.09h0a37.28,37.28,0,0,0-.25,4.09Z" transform="translate(-304.82 -162.71)"/><path class="cls-1" d="M430.1,286.46h1.52v-8.27c0-.22-.34-5.49-.76-5.49h0c-.42,0-.76,5.27-.76,5.49Z" transform="translate(-304.82 -162.71)"/><path class="cls-1" d="M433.28,286.46h1.52v-8.27c0-.22-.34-5.49-.76-5.49h0c-.42,0-.76,5.27-.76,5.49Z" transform="translate(-304.82 -162.71)"/><path class="cls-1" d="M423.29,286.46h1.52v-8.27c0-.22-.34-5.49-.76-5.49h0c-.42,0-.76,5.27-.76,5.49Z" transform="translate(-304.82 -162.71)"/><path class="cls-1" d="M426.38,286.46h1.52v-8.27c0-.22-.34-5.49-.76-5.49h0c-.42,0-.76,5.27-.76,5.49Z" transform="translate(-304.82 -162.71)"/><path class="cls-1" d="M427.15,286.46h3l0-9.68c0-.26-.67-6.43-1.48-6.43h0c-.81,0-1.46,6.17-1.46,6.43Z" transform="translate(-304.82 -162.71)"/><path class="cls-1" d="M448.44,286.46h.65v-7.85a47.27,47.27,0,0,0-.33-5.22h0a47.36,47.36,0,0,0-.32,5.22Z" transform="translate(-304.82 -162.71)"/><path class="cls-1" d="M441.55,286.46h1.94V275.91c0-.29-.43-7-1-7h0c-.53,0-1,6.72-1,7Z" transform="translate(-304.82 -162.71)"/><path class="cls-1" d="M445.62,286.46h1.94V275.91c0-.29-.43-7-1-7h0c-.53,0-1,6.72-1,7Z" transform="translate(-304.82 -162.71)"/><path class="cls-1" d="M432.83,286.46h1.94V275.91c0-.29-.43-7-1-7h0c-.53,0-1,6.72-1,7Z" transform="translate(-304.82 -162.71)"/><path class="cls-1" d="M436.79,286.46h1.94V275.91c0-.29-.43-7-1-7h0c-.54,0-1,6.72-1,7Z" transform="translate(-304.82 -162.71)"/><path class="cls-1" d="M437.78,286.46h3.77l0-12.36c0-.33-.86-8.21-1.9-8.21h0c-1,0-1.87,7.88-1.87,8.21Z" transform="translate(-304.82 -162.71)"/><path class="cls-1" d="M424.44,286.46h.65v-7.85a47.27,47.27,0,0,0-.33-5.22h0a47.36,47.36,0,0,0-.32,5.22Z" transform="translate(-304.82 -162.71)"/><path class="cls-1" d="M417.55,286.46h1.94V275.91c0-.29-.43-7-1-7h0c-.53,0-1,6.72-1,7Z" transform="translate(-304.82 -162.71)"/><path class="cls-1" d="M421.62,286.46h1.94V275.91c0-.29-.43-7-1-7h0c-.53,0-1,6.72-1,7Z" transform="translate(-304.82 -162.71)"/><path class="cls-1" d="M408.83,286.46h1.94V275.91c0-.29-.43-7-1-7h0c-.53,0-1,6.72-1,7Z" transform="translate(-304.82 -162.71)"/><path class="cls-1" d="M412.79,286.46h1.94V275.91c0-.29-.44-7-1-7h0c-.54,0-1,6.72-1,7Z" transform="translate(-304.82 -162.71)"/><path class="cls-1" d="M413.78,286.46h3.77l0-12.36c0-.33-.86-8.21-1.9-8.21h0c-1,0-1.87,7.88-1.87,8.21Z" transform="translate(-304.82 -162.71)"/><path class="cls-1" d="M414.06,286.46h.5v-6.15a37.28,37.28,0,0,0-.25-4.09h0a37.28,37.28,0,0,0-.25,4.09Z" transform="translate(-304.82 -162.71)"/><path class="cls-1" d="M408.68,286.46h1.52v-8.27c0-.22-.34-5.49-.76-5.49h0c-.42,0-.76,5.27-.76,5.49Z" transform="translate(-304.82 -162.71)"/><path class="cls-1" d="M411.86,286.46h1.52v-8.27c0-.22-.34-5.49-.76-5.49h0c-.42,0-.76,5.27-.76,5.49Z" transform="translate(-304.82 -162.71)"/><path class="cls-1" d="M401.87,286.46h1.52v-8.27c0-.22-.34-5.49-.76-5.49h0c-.42,0-.76,5.27-.76,5.49Z" transform="translate(-304.82 -162.71)"/><path class="cls-1" d="M405,286.46h1.52v-8.27c0-.22-.34-5.49-.76-5.49h0c-.42,0-.76,5.27-.76,5.49Z" transform="translate(-304.82 -162.71)"/><path class="cls-1" d="M405.73,286.46h2.95v-9.68c0-.26-.68-6.43-1.49-6.43h0c-.81,0-1.46,6.17-1.46,6.43Z" transform="translate(-304.82 -162.71)"/><path class="cls-6" d="M469.21,197.94c19.61,2.83,16.15-8.33,16.15-8.33" transform="translate(-304.82 -162.71)"/><path class="cls-6" d="M395.82,179.67c19.6,2.83,16.15-8.33,16.15-8.33" transform="translate(-304.82 -162.71)"/><ellipse class="cls-7" cx="396.76" cy="172.18" rx="2.83" ry="5.8" transform="translate(-88.65 402.47) rotate(-88.78)"/><ellipse class="cls-7" cx="421.04" cy="171.85" rx="2.83" ry="5.8" transform="translate(-64.55 426.42) rotate(-88.78)"/><ellipse class="cls-8" cx="403.49" cy="165.67" rx="2.95" ry="6.06" transform="translate(-75.55 402.82) rotate(-88.78)"/><ellipse class="cls-8" cx="394.92" cy="167.47" rx="2.95" ry="6.06" transform="translate(-85.74 396.01) rotate(-88.78)"/><ellipse class="cls-8" cx="412.83" cy="166.22" rx="2.95" ry="6.06" transform="translate(-66.97 412.7) rotate(-88.78)"/><ellipse class="cls-8" cx="421.16" cy="168.12" rx="2.95" ry="6.06" transform="translate(-60.71 422.88) rotate(-88.78)"/><ellipse class="cls-9" cx="406.75" cy="166.8" rx="2.95" ry="10.23" transform="translate(-74.93 406.56) rotate(-88.57)"/><ellipse class="cls-9" cx="395.21" cy="169.63" rx="2.95" ry="11.66" transform="translate(-85.92 399.19) rotate(-89.03)"/><ellipse class="cls-9" cx="411.87" cy="172.31" rx="2.95" ry="11.04" transform="translate(-72.28 418.46) rotate(-89.02)"/><ellipse class="cls-9" cx="421.11" cy="169.75" rx="2.95" ry="8.2" transform="matrix(0.02, -1, 1, 0.02, -61.18, 424.95)"/><ellipse class="cls-7" cx="394.84" cy="170.12" rx="2.83" ry="5.8" transform="translate(-88.47 398.53) rotate(-88.78)"/><ellipse class="cls-7" cx="402.68" cy="168.6" rx="2.83" ry="5.8" transform="translate(-79.27 404.88) rotate(-88.78)"/><ellipse class="cls-7" cx="416.4" cy="169.59" rx="2.83" ry="5.8" transform="translate(-66.84 419.57) rotate(-88.78)"/><ellipse class="cls-7" cx="409.37" cy="167.81" rx="2.83" ry="5.8" transform="translate(-71.93 410.8) rotate(-88.78)"/><ellipse class="cls-9" cx="394.52" cy="171.23" rx="2.83" ry="5.8" transform="translate(-89.89 399.3) rotate(-88.78)"/><ellipse class="cls-9" cx="403.94" cy="172.66" rx="2.83" ry="5.8" transform="translate(-82.1 410.12) rotate(-88.78)"/><ellipse class="cls-9" cx="404.01" cy="170.33" rx="2.83" ry="5.8" transform="matrix(0.02, -1, 1, 0.02, -79.7, 407.91)"/><ellipse class="cls-9" cx="409.53" cy="169.56" rx="2.83" ry="5.8" transform="translate(-73.53 412.68) rotate(-88.78)"/><ellipse class="cls-9" cx="416.48" cy="170.92" rx="2.83" ry="5.8" transform="translate(-68.09 420.96) rotate(-88.78)"/><path class="cls-10" d="M432.7,182.88c0-.92-4.11-1.66-9.19-1.66" transform="translate(-304.82 -162.71)"/><path class="cls-10" d="M433.81,183.37v1.27" transform="translate(-304.82 -162.71)"/><ellipse class="cls-8" cx="131.62" cy="22.8" rx="19.46" ry="3.47"/><ellipse class="cls-8" cx="159.19" cy="22.46" rx="19.46" ry="3.47"/><ellipse class="cls-8" cx="139.73" cy="20.65" rx="19.46" ry="3.47"/><ellipse class="cls-8" cx="155.52" cy="20.63" rx="7.5" ry="3.75"/><ellipse class="cls-8" cx="148.35" cy="18.09" rx="3.02" ry="1.51"/><ellipse class="cls-8" cx="119.94" cy="20.98" rx="3.03" ry="1.52"/><ellipse class="cls-7" cx="121.9" cy="23.49" rx="19.46" ry="3.47"/><ellipse class="cls-7" cx="128.99" cy="22.46" rx="6.78" ry="3.39"/><ellipse class="cls-7" cx="135.42" cy="20.63" rx="4.41" ry="1.87"/><ellipse class="cls-7" cx="131.62" cy="24.76" rx="19.46" ry="3.47"/><ellipse class="cls-7" cx="172.99" cy="24.66" rx="19.46" ry="3.47"/><ellipse class="cls-9" cx="167.83" cy="30.77" rx="3.75" ry="1.88"/><ellipse class="cls-9" cx="173.86" cy="29.76" rx="3.75" ry="1.88"/><ellipse class="cls-9" cx="138.03" cy="29.53" rx="6.15" ry="3.72"/><ellipse class="cls-9" cx="144.69" cy="28.86" rx="6.15" ry="3.72"/><ellipse class="cls-9" cx="153.53" cy="29.53" rx="6.15" ry="3.72"/><ellipse class="cls-9" cx="160.49" cy="28.57" rx="6.15" ry="3.72"/><ellipse class="cls-9" cx="120.82" cy="27.39" rx="21.42" ry="2.74"/><ellipse class="cls-9" cx="170.63" cy="26.76" rx="23.11" ry="3.47"/><ellipse class="cls-9" cx="123.29" cy="24.76" rx="17.37" ry="1.5"/><ellipse class="cls-9" cx="142.24" cy="21.29" rx="6.4" ry="3.2"/><ellipse class="cls-9" cx="124.98" cy="23.49" rx="3.08" ry="1.54"/><ellipse class="cls-9" cx="135.17" cy="24.47" rx="9.25" ry="3.48"/><ellipse class="cls-9" cx="128.99" cy="29.53" rx="6.4" ry="3.2"/><ellipse class="cls-9" cx="118.19" cy="29.53" rx="6.4" ry="3.2"/><ellipse class="cls-9" cx="151.6" cy="23.49" rx="8.64" ry="4.89"/><ellipse class="cls-9" cx="162.17" cy="25.14" rx="8.64" ry="4.89"/><path class="cls-6" d="M341.25,214c0,15.9,15.86,11.53,15.86,11.53" transform="translate(-304.82 -162.71)"/><path class="cls-6" d="M362.32,196.49c0,22.52,18.39,21.26,15.86,13.52" transform="translate(-304.82 -162.71)"/><path class="cls-6" d="M413.53,233.17c14.09,2,12.15-8.9,12.15-8.9" transform="translate(-304.82 -162.71)"/><path class="cls-6" d="M429.72,204c14.09,2,12.15-8.91,12.15-8.91" transform="translate(-304.82 -162.71)"/><path class="cls-6" d="M448.71,217.45c14.09,2,12.15-8.91,12.15-8.91" transform="translate(-304.82 -162.71)"/><path class="cls-6" d="M363.77,204c6.54.95,7.16-7.91,7.16-7.91" transform="translate(-304.82 -162.71)"/><ellipse class="cls-8" cx="314.58" cy="215.12" rx="2.13" ry="1.49" transform="translate(-316.24 -144.98) rotate(-3.17)"/><ellipse class="cls-8" cx="316.9" cy="216.97" rx="2.13" ry="1.49" transform="translate(-316.34 -144.85) rotate(-3.17)"/><ellipse class="cls-8" cx="319.44" cy="217.57" rx="2.13" ry="1.49" transform="translate(-316.37 -144.71) rotate(-3.17)"/><ellipse class="cls-8" cx="333.99" cy="217.64" rx="2.13" ry="1.49" transform="translate(-316.35 -143.9) rotate(-3.17)"/><ellipse class="cls-8" cx="318.6" cy="209.09" rx="2.13" ry="1.49" transform="translate(-315.9 -144.77) rotate(-3.17)"/><ellipse class="cls-8" cx="355.91" cy="206.24" rx="3.68" ry="2.57" transform="translate(-315.68 -142.71) rotate(-3.17)"/><ellipse class="cls-8" cx="334.98" cy="204.33" rx="3.68" ry="2.57" transform="translate(-315.61 -143.87) rotate(-3.17)"/><ellipse class="cls-8" cx="329.73" cy="205.34" rx="3.04" ry="1.94" transform="translate(-316.74 -142.2) rotate(-3.5)"/><ellipse class="cls-8" cx="360.69" cy="207.61" rx="2.57" ry="1.79" transform="translate(-315.75 -142.44) rotate(-3.17)"/><ellipse class="cls-8" cx="362.93" cy="209.03" rx="1.83" ry="1.28" transform="translate(-315.83 -142.31) rotate(-3.17)"/><ellipse class="cls-8" cx="340.95" cy="204.48" rx="3.68" ry="2.57" transform="translate(-315.61 -143.54) rotate(-3.17)"/><ellipse class="cls-8" cx="347.56" cy="204.98" rx="5.72" ry="3.99" transform="translate(-315.63 -143.17) rotate(-3.17)"/><ellipse class="cls-8" cx="323.35" cy="207.41" rx="4.41" ry="3.08" transform="translate(-315.8 -144.51) rotate(-3.17)"/><ellipse class="cls-7" cx="351.73" cy="208.7" rx="4.41" ry="3.08" transform="translate(-315.83 -142.93) rotate(-3.17)"/><ellipse class="cls-7" cx="324.67" cy="210.54" rx="4.41" ry="3.08" transform="translate(-315.97 -144.43) rotate(-3.17)"/><ellipse class="cls-7" cx="318.91" cy="212.21" rx="4.41" ry="3.08" transform="translate(-316.07 -144.74) rotate(-3.17)"/><ellipse class="cls-7" cx="312.57" cy="212.7" rx="7.77" ry="2.59" transform="translate(-317.81 -142.24) rotate(-3.67)"/><ellipse class="cls-7" cx="334.25" cy="208.52" rx="4.41" ry="3.08" transform="translate(-315.84 -143.9) rotate(-3.17)"/><ellipse class="cls-7" cx="329.56" cy="208.88" rx="4.41" ry="3.08" transform="translate(-315.87 -144.16) rotate(-3.17)"/><ellipse class="cls-7" cx="364.74" cy="213.32" rx="4.41" ry="3.08" transform="translate(-316.06 -142.21) rotate(-3.17)"/><ellipse class="cls-7" cx="345.53" cy="206.08" rx="4.41" ry="3.08" transform="translate(-315.69 -143.28) rotate(-3.17)"/><ellipse class="cls-7" cx="338.96" cy="207.21" rx="3.93" ry="2.49" transform="translate(-324.34 -126.74) rotate(-5.91)"/><ellipse class="cls-7" cx="357.24" cy="209.68" rx="2.7" ry="1.88" transform="translate(-315.87 -142.63) rotate(-3.17)"/><ellipse class="cls-7" cx="360.95" cy="210.32" rx="2.7" ry="1.88" transform="translate(-315.9 -142.42) rotate(-3.17)"/><ellipse class="cls-7" cx="364.89" cy="210.16" rx="1.96" ry="1.37" transform="translate(-315.89 -142.2) rotate(-3.17)"/><ellipse class="cls-7" cx="317.04" cy="214.92" rx="1.96" ry="1.37" transform="translate(-316.22 -144.84) rotate(-3.17)"/><ellipse class="cls-7" cx="367.81" cy="211.05" rx="2.81" ry="1.38" transform="translate(-334.11 -100.44) rotate(-9.31)"/><ellipse class="cls-7" cx="371.38" cy="212.81" rx="5.01" ry="1.37" transform="translate(-322.14 -129.12) rotate(-5.06)"/><ellipse class="cls-9" cx="343.79" cy="211.63" rx="5.97" ry="3.88" transform="translate(-323.07 -129.71) rotate(-5.36)"/><ellipse class="cls-9" cx="349.25" cy="215.64" rx="5.97" ry="3.88" transform="translate(-323.42 -129.18) rotate(-5.36)"/><ellipse class="cls-9" cx="339.79" cy="215.6" rx="5.97" ry="3.88" transform="translate(-323.46 -130.06) rotate(-5.36)"/><ellipse class="cls-9" cx="327.65" cy="215.25" rx="10.72" ry="3.87" transform="translate(-324.29 -129.65) rotate(-5.61)"/><ellipse class="cls-9" cx="350.17" cy="211.69" rx="2.98" ry="1.94" transform="translate(-323.04 -129.11) rotate(-5.36)"/><ellipse class="cls-9" cx="365.41" cy="214.8" rx="6.11" ry="1.93" transform="translate(-316.69 -141.11) rotate(-3.33)"/><ellipse class="cls-9" cx="359.23" cy="212.91" rx="2.98" ry="1.94" transform="translate(-323.12 -128.26) rotate(-5.36)"/><ellipse class="cls-9" cx="356.8" cy="215.3" rx="2.98" ry="1.94" transform="translate(-323.35 -128.47) rotate(-5.36)"/><ellipse class="cls-9" cx="355.19" cy="212.01" rx="2.98" ry="1.94" transform="translate(-323.05 -128.64) rotate(-5.36)"/><ellipse class="cls-9" cx="337.55" cy="211.6" rx="2.98" ry="1.94" transform="translate(-323.09 -130.29) rotate(-5.36)"/><ellipse class="cls-9" cx="332" cy="211.6" rx="2.63" ry="1.36" transform="translate(-333.47 -108.99) rotate(-8.87)"/><ellipse class="cls-8" cx="100.03" cy="24.26" rx="3.27" ry="2.88"/><ellipse class="cls-8" cx="96.76" cy="28.19" rx="3.27" ry="2.88"/><ellipse class="cls-8" cx="92.98" cy="29.73" rx="3.27" ry="2.88"/><ellipse class="cls-8" cx="70.75" cy="31.99" rx="3.27" ry="2.88"/><ellipse class="cls-8" cx="92.98" cy="13.22" rx="3.27" ry="2.88"/><ellipse class="cls-8" cx="35.53" cy="13.22" rx="5.65" ry="4.98"/><ellipse class="cls-8" cx="67.23" cy="6.45" rx="5.65" ry="4.98"/><ellipse class="cls-8" cx="75.41" cy="7.63" rx="4.66" ry="3.76"/><ellipse class="cls-8" cx="28.44" cy="16.58" rx="3.94" ry="3.47"/><ellipse class="cls-8" cx="25.22" cy="19.64" rx="2.81" ry="2.48"/><ellipse class="cls-8" cx="58.13" cy="7.63" rx="5.65" ry="4.98"/><ellipse class="cls-8" cx="48.1" cy="9.56" rx="8.77" ry="7.73"/><ellipse class="cls-8" cx="85.47" cy="10.69" rx="6.77" ry="5.96"/><ellipse class="cls-7" cx="42.29" cy="17.35" rx="6.77" ry="5.96"/><ellipse class="cls-7" cx="83.93" cy="16.92" rx="6.77" ry="5.96"/><ellipse class="cls-7" cx="92.98" cy="19.29" rx="6.77" ry="5.96"/><ellipse class="cls-7" cx="407.56" cy="182.01" rx="11.92" ry="5.02" transform="translate(-307.09 -157.52) rotate(-0.73)"/><ellipse class="cls-7" cx="68.98" cy="14.44" rx="6.77" ry="5.96"/><ellipse class="cls-7" cx="76.2" cy="14.44" rx="6.77" ry="5.96"/><ellipse class="cls-7" cx="23.11" cy="28.19" rx="6.77" ry="5.96"/><ellipse class="cls-7" cx="51.38" cy="11.38" rx="6.77" ry="5.96"/><ellipse class="cls-7" cx="366.39" cy="175.32" rx="4.82" ry="6.04" transform="translate(-144.72 362.5) rotate(-85.05)"/><ellipse class="cls-7" cx="34.02" cy="20.05" rx="4.14" ry="3.65"/><ellipse class="cls-7" cx="28.44" cy="21.85" rx="4.14" ry="3.65"/><ellipse class="cls-7" cx="22.4" cy="22.12" rx="3" ry="2.65"/><ellipse class="cls-7" cx="96.24" cy="24.24" rx="3" ry="2.65"/><ellipse class="cls-7" cx="322.89" cy="186.98" rx="2.65" ry="4.34" transform="translate(-212.95 317.25) rotate(-81.82)"/><ellipse class="cls-7" cx="317.69" cy="190.91" rx="2.65" ry="7.69" transform="translate(-183.84 342.32) rotate(-88.95)"/><ellipse class="cls-9" cx="359.69" cy="184.56" rx="7.5" ry="9.17" transform="translate(-155.52 367.06) rotate(-85.8)"/><ellipse class="cls-9" cx="351.94" cy="193.1" rx="7.5" ry="9.17" transform="translate(-171.22 367.26) rotate(-85.8)"/><ellipse class="cls-9" cx="366.28" cy="193.56" rx="7.5" ry="9.17" transform="translate(-158.38 381.98) rotate(-85.8)"/><ellipse class="cls-9" cx="384.89" cy="189.17" rx="7.49" ry="16.46" transform="translate(-122.28 404.57) rotate(-88.02)"/><ellipse class="cls-9" cx="349.93" cy="185.61" rx="3.75" ry="4.59" transform="translate(-165.61 358.31) rotate(-85.8)"/><ellipse class="cls-9" cx="327.11" cy="193.85" rx="9.38" ry="3.74" transform="translate(-308.82 -155.79) rotate(-1.21)"/><ellipse class="cls-9" cx="336.28" cy="189.3" rx="3.75" ry="4.59" transform="translate(-181.95 348.1) rotate(-85.8)"/><ellipse class="cls-9" cx="340.34" cy="193.56" rx="3.75" ry="4.59" transform="translate(-182.42 356.1) rotate(-85.8)"/><ellipse class="cls-9" cx="342.31" cy="186.98" rx="3.75" ry="4.59" transform="translate(-174.03 351.97) rotate(-85.8)"/><ellipse class="cls-9" cx="369.21" cy="183.57" rx="3.75" ry="4.59" transform="translate(-145.71 375.64) rotate(-85.8)"/><ellipse class="cls-9" cx="377.7" cy="182.77" rx="2.61" ry="4.05" transform="translate(-159.86 369.18) rotate(-82.13)"/><path class="cls-11" d="M416.51,286.35H399c1.69-11.15,2.84-1.86,2.81-15.84,0-11.19.86-33-.32-42.32h13c-1.25,11.11-.73,35.06-.43,48.62C414.26,288.2,415.2,276.76,416.51,286.35Z" transform="translate(-304.82 -162.71)"/><path class="cls-12" d="M416.51,286.35h-7V228.19h4.9c-1.25,11.11-.73,35.06-.43,48.62C414.26,288.2,415.2,276.76,416.51,286.35Z" transform="translate(-304.82 -162.71)"/><ellipse class="cls-7" cx="147.82" cy="44.13" rx="5.03" ry="4.43"/><ellipse class="cls-7" cx="168.87" cy="42.72" rx="5.03" ry="4.43"/><ellipse class="cls-8" cx="153.49" cy="33.66" rx="5.25" ry="4.63"/><ellipse class="cls-8" cx="146.1" cy="36.8" rx="5.25" ry="4.63"/><ellipse class="cls-8" cx="161.59" cy="34.19" rx="5.25" ry="4.63"/><ellipse class="cls-8" cx="168.87" cy="36.86" rx="5.25" ry="4.63"/><ellipse class="cls-9" cx="461.15" cy="198.03" rx="4.63" ry="8.88" transform="translate(-43.89 495.53) rotate(-89.73)"/><ellipse class="cls-9" cx="451.22" cy="202.9" rx="10.11" ry="4.63" transform="translate(-307.38 -156.91) rotate(-0.73)"/><ellipse class="cls-9" cx="465.74" cy="206.49" rx="9.58" ry="4.63" transform="translate(-307.39 -156.8) rotate(-0.73)"/><ellipse class="cls-9" cx="473.68" cy="202.14" rx="7.11" ry="4.63" transform="translate(-307 -157.52) rotate(-0.63)"/><ellipse class="cls-7" cx="146.1" cy="40.96" rx="5.03" ry="4.43"/><ellipse class="cls-7" cx="152.86" cy="38.29" rx="5.03" ry="4.43"/><ellipse class="cls-7" cx="164.78" cy="39.34" rx="5.03" ry="4.43"/><ellipse class="cls-7" cx="158.64" cy="36.8" rx="5.03" ry="4.43"/><ellipse class="cls-9" cx="145.85" cy="42.72" rx="5.03" ry="4.43"/><ellipse class="cls-9" cx="154.06" cy="44.62" rx="5.03" ry="4.43"/><ellipse class="cls-9" cx="154.06" cy="40.96" rx="5.03" ry="4.43"/><ellipse class="cls-9" cx="158.82" cy="39.56" rx="5.03" ry="4.43"/><ellipse class="cls-9" cx="164.89" cy="41.43" rx="5.03" ry="4.43"/><ellipse class="cls-8" cx="139.46" cy="57.38" rx="3.27" ry="2.88"/><ellipse class="cls-8" cx="136.19" cy="61.31" rx="3.27" ry="2.88"/><ellipse class="cls-8" cx="132.41" cy="62.84" rx="3.27" ry="2.88"/><ellipse class="cls-8" cx="110.18" cy="65.1" rx="3.27" ry="2.88"/><ellipse class="cls-8" cx="132.41" cy="46.33" rx="3.27" ry="2.88"/><ellipse class="cls-8" cx="74.95" cy="46.33" rx="5.65" ry="4.98"/><ellipse class="cls-8" cx="106.66" cy="39.56" rx="5.65" ry="4.98"/><ellipse class="cls-8" cx="114.84" cy="40.74" rx="4.66" ry="3.76"/><ellipse class="cls-8" cx="67.87" cy="49.69" rx="3.94" ry="3.47"/><ellipse class="cls-8" cx="64.64" cy="52.75" rx="2.81" ry="2.48"/><ellipse class="cls-8" cx="97.56" cy="40.74" rx="5.65" ry="4.98"/><ellipse class="cls-8" cx="87.53" cy="42.68" rx="8.77" ry="7.73"/><ellipse class="cls-8" cx="124.9" cy="43.8" rx="6.77" ry="5.96"/><ellipse class="cls-7" cx="81.72" cy="50.46" rx="6.77" ry="5.96"/><ellipse class="cls-7" cx="123.36" cy="50.04" rx="6.77" ry="5.96"/><ellipse class="cls-7" cx="132.41" cy="52.4" rx="6.77" ry="5.96"/><ellipse class="cls-7" cx="446.98" cy="215.12" rx="11.92" ry="5.02" transform="translate(-307.51 -157.02) rotate(-0.73)"/><ellipse class="cls-7" cx="108.4" cy="47.55" rx="6.77" ry="5.96"/><ellipse class="cls-7" cx="115.63" cy="47.55" rx="6.77" ry="5.96"/><ellipse class="cls-7" cx="62.54" cy="61.31" rx="6.77" ry="5.96"/><ellipse class="cls-7" cx="90.81" cy="44.5" rx="6.77" ry="5.96"/><ellipse class="cls-7" cx="405.82" cy="208.43" rx="4.82" ry="6.04" transform="translate(-141.69 432.03) rotate(-85.05)"/><ellipse class="cls-7" cx="73.45" cy="53.16" rx="4.14" ry="3.65"/><ellipse class="cls-7" cx="67.87" cy="54.96" rx="4.14" ry="3.65"/><ellipse class="cls-7" cx="61.83" cy="55.23" rx="3" ry="2.65"/><ellipse class="cls-7" cx="135.67" cy="57.36" rx="3" ry="2.65"/><ellipse class="cls-7" cx="362.32" cy="220.09" rx="2.65" ry="4.34" transform="translate(-211.91 384.68) rotate(-81.82)"/><ellipse class="cls-7" cx="357.11" cy="224.02" rx="2.65" ry="7.69" transform="translate(-178.25 414.24) rotate(-88.95)"/><ellipse class="cls-9" cx="399.12" cy="217.67" rx="7.5" ry="9.17" transform="translate(-152 437.07) rotate(-85.8)"/><ellipse class="cls-9" cx="391.37" cy="226.22" rx="7.5" ry="9.17" transform="translate(-167.7 437.27) rotate(-85.8)"/><ellipse class="cls-9" cx="405.82" cy="224.74" rx="7.5" ry="9.17" transform="translate(-152.84 450.31) rotate(-85.8)"/><ellipse class="cls-9" cx="424.31" cy="222.28" rx="7.49" ry="16.46" transform="translate(-117.3 475.95) rotate(-88.02)"/><ellipse class="cls-9" cx="389.36" cy="218.72" rx="3.75" ry="4.59" transform="translate(-162.09 428.32) rotate(-85.8)"/><ellipse class="cls-9" cx="366.54" cy="226.96" rx="9.38" ry="3.74" transform="translate(-309.51 -154.95) rotate(-1.21)"/><ellipse class="cls-9" cx="375.7" cy="222.41" rx="3.75" ry="4.59" transform="translate(-178.43 418.11) rotate(-85.8)"/><path class="cls-9" d="M384.28,227.45a4.13,4.13,0,0,1-2.09,2.47,5.21,5.21,0,0,1-3.24.42c-2-.41-4.18-2.24-3.69-4.45.46-2,2.84-3.33,5.33-2.89S384.73,225.42,384.28,227.45Z" transform="translate(-304.82 -162.71)"/><ellipse class="cls-9" cx="381.74" cy="220.09" rx="3.75" ry="4.59" transform="translate(-170.52 421.98) rotate(-85.8)"/><ellipse class="cls-9" cx="408.64" cy="216.69" rx="3.75" ry="4.59" transform="translate(-142.19 445.65) rotate(-85.8)"/><ellipse class="cls-9" cx="417.12" cy="215.88" rx="2.61" ry="4.05" transform="translate(-158.62 436.82) rotate(-82.13)"/><ellipse class="cls-8" cx="346.57" cy="184.19" rx="1.16" ry="0.92" transform="translate(-174.68 348.88) rotate(-84.52)"/><ellipse class="cls-8" cx="347.58" cy="185.62" rx="1.16" ry="0.92" transform="translate(-175.18 351.18) rotate(-84.52)"/><ellipse class="cls-8" cx="348.68" cy="186.07" rx="1.16" ry="0.92" transform="translate(-174.64 352.68) rotate(-84.52)"/><ellipse class="cls-8" cx="354.99" cy="186.05" rx="1.16" ry="0.92" transform="translate(-168.91 358.94) rotate(-84.52)"/><ellipse class="cls-8" cx="348.29" cy="179.5" rx="1.16" ry="0.92" transform="translate(-168.45 346.35) rotate(-84.52)"/><ellipse class="cls-8" cx="364.45" cy="177.1" rx="2" ry="1.59" transform="translate(-151.44 360.27) rotate(-84.52)"/><ellipse class="cls-8" cx="355.37" cy="175.73" rx="2" ry="1.59" transform="translate(-158.29 349.99) rotate(-84.52)"/><ellipse class="cls-8" cx="353.1" cy="176.54" rx="1.52" ry="1.3" transform="translate(-197.41 322.82) rotate(-78.07)"/><ellipse class="cls-8" cx="366.53" cy="178.15" rx="1.39" ry="1.11" transform="translate(-150.61 363.28) rotate(-84.52)"/><ellipse class="cls-8" cx="367.51" cy="179.23" rx="1" ry="0.79" transform="translate(-150.8 365.24) rotate(-84.52)"/><ellipse class="cls-8" cx="357.96" cy="175.82" rx="2" ry="1.59" transform="translate(-156.04 352.65) rotate(-84.52)"/><ellipse class="cls-8" cx="360.83" cy="176.17" rx="3.1" ry="2.47" transform="translate(-153.8 355.82) rotate(-84.52)"/><ellipse class="cls-8" cx="350.34" cy="178.18" rx="2.39" ry="1.9" transform="translate(-165.28 347.19) rotate(-84.52)"/><ellipse class="cls-7" cx="362.65" cy="179.03" rx="2.39" ry="1.9" transform="translate(-155 360.22) rotate(-84.52)"/><ellipse class="cls-7" cx="350.92" cy="180.6" rx="2.39" ry="1.9" transform="translate(-167.16 349.96) rotate(-84.52)"/><ellipse class="cls-7" cx="348.43" cy="181.91" rx="2.39" ry="1.9" transform="translate(-170.72 348.68) rotate(-84.52)"/><ellipse class="cls-7" cx="345.68" cy="182.32" rx="3.39" ry="2" transform="translate(-330.8 -101.24) rotate(-9.8)"/><ellipse class="cls-7" cx="355.07" cy="178.98" rx="2.39" ry="1.9" transform="translate(-161.8 352.63) rotate(-84.52)"/><ellipse class="cls-7" cx="353.04" cy="179.28" rx="2.39" ry="1.9" transform="translate(-163.94 350.88) rotate(-84.52)"/><ellipse class="cls-7" cx="368.3" cy="182.55" rx="2.39" ry="1.9" transform="translate(-153.38 369.03) rotate(-84.52)"/><ellipse class="cls-7" cx="359.95" cy="177.03" rx="2.39" ry="1.9" transform="translate(-155.45 355.73) rotate(-84.52)"/><ellipse class="cls-7" cx="357.11" cy="177.95" rx="1.98" ry="1.67" transform="translate(-226.7 300.45) rotate(-72.12)"/><ellipse class="cls-7" cx="365.04" cy="179.76" rx="1.47" ry="1.17" transform="matrix(0.1, -1, 1, 0.1, -153.56, 363.26)"/><ellipse class="cls-7" cx="366.65" cy="180.25" rx="1.47" ry="1.17" transform="translate(-152.58 365.31) rotate(-84.52)"/><ellipse class="cls-7" cx="368.36" cy="180.1" rx="1.06" ry="0.85" transform="translate(-150.9 366.87) rotate(-84.52)"/><ellipse class="cls-7" cx="347.63" cy="184.02" rx="1.06" ry="0.85" transform="translate(-173.55 349.79) rotate(-84.52)"/><ellipse class="cls-7" cx="369.63" cy="180.78" rx="1.3" ry="1" transform="translate(-340.18 90.78) rotate(-36.24)"/><ellipse class="cls-7" cx="371.18" cy="182.13" rx="2.2" ry="1.05" transform="translate(-333.82 -84.5) rotate(-11.58)"/><ellipse class="cls-9" cx="359.21" cy="181.35" rx="3.06" ry="2.55" transform="translate(-209.37 322.52) rotate(-75.83)"/><ellipse class="cls-9" cx="361.6" cy="184.43" rx="3.06" ry="2.55" transform="translate(-210.56 327.15) rotate(-75.83)"/><ellipse class="cls-9" cx="357.5" cy="184.44" rx="3.06" ry="2.55" transform="translate(-213.67 323.19) rotate(-75.83)"/><ellipse class="cls-9" cx="352.23" cy="184.23" rx="4.72" ry="2.95" transform="translate(-340.93 -63.29) rotate(-15.29)"/><ellipse class="cls-9" cx="361.98" cy="181.36" rx="1.53" ry="1.27" transform="translate(-207.29 325.21) rotate(-75.83)"/><ellipse class="cls-9" cx="368.6" cy="183.69" rx="2.66" ry="1.49" transform="translate(-328.22 -105.29) rotate(-8.63)"/><ellipse class="cls-9" cx="365.91" cy="182.26" rx="1.53" ry="1.27" transform="translate(-205.19 329.7) rotate(-75.83)"/><ellipse class="cls-9" cx="364.87" cy="184.12" rx="1.53" ry="1.27" transform="translate(-207.79 330.1) rotate(-75.83)"/><ellipse class="cls-9" cx="364.16" cy="181.58" rx="1.53" ry="1.27" transform="translate(-205.87 327.5) rotate(-75.83)"/><ellipse class="cls-9" cx="356.51" cy="181.35" rx="1.53" ry="1.27" transform="translate(-211.41 319.9) rotate(-75.83)"/><ellipse class="cls-9" cx="354.1" cy="181.38" rx="1.22" ry="0.98" transform="translate(-338.1 109.32) rotate(-40.29)"/><ellipse class="cls-8" cx="455.38" cy="203.97" rx="0.92" ry="1.16" transform="translate(-331.92 -85.95) rotate(-9.36)"/><ellipse class="cls-8" cx="456.32" cy="202.51" rx="0.92" ry="1.16" transform="translate(-331.67 -85.81) rotate(-9.36)"/><ellipse class="cls-8" cx="457.4" cy="202.01" rx="0.92" ry="1.16" transform="translate(-331.58 -85.64) rotate(-9.36)"/><ellipse class="cls-8" cx="463.71" cy="201.79" rx="0.92" ry="1.16" transform="translate(-331.46 -84.62) rotate(-9.36)"/><ellipse class="cls-8" cx="457.34" cy="208.6" rx="0.92" ry="1.16" transform="translate(-332.65 -85.57) rotate(-9.36)"/><ellipse class="cls-8" cx="473.61" cy="210.36" rx="1.59" ry="2" transform="translate(-332.72 -82.9) rotate(-9.36)"/><ellipse class="cls-8" cx="464.6" cy="212.09" rx="1.59" ry="2" transform="translate(-333.12 -84.34) rotate(-9.36)"/><ellipse class="cls-8" cx="462.29" cy="211.36" rx="1.3" ry="1.52" transform="translate(-345.55 -24.53) rotate(-16.29)"/><ellipse class="cls-8" cx="475.63" cy="209.24" rx="1.11" ry="1.4" transform="translate(-332.51 -82.58) rotate(-9.36)"/><ellipse class="cls-8" cx="476.55" cy="208.12" rx="0.79" ry="1" transform="translate(-332.32 -82.45) rotate(-9.36)"/><ellipse class="cls-8" cx="467.18" cy="211.9" rx="1.59" ry="2" transform="translate(-333.06 -83.92) rotate(-9.36)"/><ellipse class="cls-8" cx="470.03" cy="211.43" rx="2.47" ry="3.11" transform="translate(-332.94 -83.47) rotate(-9.36)"/><ellipse class="cls-8" cx="459.45" cy="209.84" rx="1.9" ry="2.4" transform="translate(-332.82 -85.21) rotate(-9.36)"/><ellipse class="cls-7" cx="471.71" cy="208.51" rx="1.9" ry="2.4" transform="translate(-332.44 -83.23) rotate(-9.36)"/><ellipse class="cls-7" cx="459.91" cy="207.4" rx="1.9" ry="2.4" transform="translate(-332.42 -85.16) rotate(-9.36)"/><ellipse class="cls-7" cx="457.36" cy="206.18" rx="1.9" ry="2.4" transform="translate(-332.26 -85.6) rotate(-9.36)"/><ellipse class="cls-7" cx="454.6" cy="205.87" rx="1.99" ry="3.4" transform="translate(-116.59 465.16) rotate(-82.1)"/><ellipse class="cls-7" cx="464.14" cy="208.85" rx="1.9" ry="2.4" transform="translate(-332.6 -84.46) rotate(-9.36)"/><ellipse class="cls-7" cx="462.09" cy="208.63" rx="1.9" ry="2.4" transform="translate(-332.59 -84.79) rotate(-9.36)"/><ellipse class="cls-7" cx="477.18" cy="204.77" rx="1.9" ry="2.4" transform="translate(-331.76 -82.39) rotate(-9.36)"/><ellipse class="cls-7" cx="469.11" cy="210.61" rx="1.9" ry="2.4" transform="translate(-332.82 -83.63) rotate(-9.36)"/><ellipse class="cls-7" cx="466.23" cy="209.81" rx="1.66" ry="1.98" transform="translate(-349.4 25.57) rotate(-21.82)"/><ellipse class="cls-7" cx="474.06" cy="207.68" rx="1.16" ry="1.47" transform="translate(-332.28 -82.86) rotate(-9.36)"/><ellipse class="cls-7" cx="475.65" cy="207.14" rx="1.16" ry="1.47" transform="matrix(0.99, -0.16, 0.16, 0.99, -332.17, -82.61)"/><ellipse class="cls-7" cx="477.36" cy="207.22" rx="0.84" ry="1.06" transform="translate(-332.16 -82.33) rotate(-9.36)"/><ellipse class="cls-7" cx="456.46" cy="204.1" rx="0.84" ry="1.06" transform="matrix(0.99, -0.16, 0.16, 0.99, -331.93, -85.77)"/><ellipse class="cls-7" cx="478.59" cy="206.5" rx="0.99" ry="1.31" transform="translate(-265.65 324.13) rotate(-55.88)"/><ellipse class="cls-7" cx="480.08" cy="205.09" rx="1.05" ry="2.2" transform="translate(-106.46 481.89) rotate(-80.47)"/><ellipse class="cls-9" cx="468.16" cy="206.33" rx="2.54" ry="3.06" transform="translate(-345.81 -6.49) rotate(-18.16)"/><ellipse class="cls-9" cx="470.39" cy="203.16" rx="2.54" ry="3.06" transform="translate(-344.71 -5.95) rotate(-18.16)"/><ellipse class="cls-9" cx="466.29" cy="203.3" rx="2.54" ry="3.06" transform="translate(-344.96 -7.22) rotate(-18.16)"/><ellipse class="cls-9" cx="461.04" cy="203.72" rx="2.94" ry="4.74" transform="translate(-148.81 442.27) rotate(-76.6)"/><ellipse class="cls-9" cx="470.93" cy="206.21" rx="1.27" ry="1.53" transform="translate(-345.63 -5.63) rotate(-18.16)"/><ellipse class="cls-9" cx="477.42" cy="203.63" rx="1.49" ry="2.67" transform="translate(-85.31 491.33) rotate(-83.3)"/><ellipse class="cls-9" cx="474.81" cy="205.16" rx="1.27" ry="1.53" transform="matrix(0.95, -0.31, 0.31, 0.95, -345.11, -4.47)"/><ellipse class="cls-9" cx="473.68" cy="203.34" rx="1.27" ry="1.53" transform="translate(-344.6 -4.92) rotate(-18.16)"/><ellipse class="cls-9" cx="473.09" cy="205.9" rx="1.27" ry="1.53" transform="translate(-345.43 -4.97) rotate(-18.16)"/><ellipse class="cls-9" cx="465.46" cy="206.43" rx="1.27" ry="1.53" transform="translate(-345.97 -7.32) rotate(-18.16)"/><ellipse class="cls-9" cx="463.06" cy="206.49" rx="0.97" ry="1.23" transform="translate(-289.79 281.11) rotate(-51.95)"/><ellipse class="cls-8" cx="448.11" cy="185.55" rx="0.92" ry="1.16" transform="translate(-331.09 -78.11) rotate(-10.48)"/><ellipse class="cls-8" cx="447.19" cy="187.03" rx="0.92" ry="1.16" transform="translate(-331.38 -78.25) rotate(-10.48)"/><ellipse class="cls-8" cx="446.12" cy="187.53" rx="0.92" ry="1.16" transform="translate(-331.49 -78.44) rotate(-10.48)"/><ellipse class="cls-8" cx="439.82" cy="187.82" rx="0.92" ry="1.16" transform="matrix(0.98, -0.18, 0.18, 0.98, -331.64, -79.58)"/><ellipse class="cls-8" cx="446.09" cy="180.95" rx="0.92" ry="1.16" transform="translate(-330.29 -78.55) rotate(-10.48)"/><ellipse class="cls-8" cx="429.79" cy="179.36" rx="1.59" ry="2" transform="translate(-330.27 -81.54) rotate(-10.48)"/><ellipse class="cls-8" cx="438.77" cy="177.54" rx="1.59" ry="2" transform="translate(-329.79 -79.94) rotate(-10.48)"/><ellipse class="cls-8" cx="441.1" cy="178.24" rx="1.3" ry="1.52" transform="translate(-338.02 -21.58) rotate(-17.53)"/><ellipse class="cls-8" cx="427.79" cy="180.51" rx="1.11" ry="1.4" transform="translate(-330.51 -81.89) rotate(-10.48)"/><ellipse class="cls-8" cx="426.88" cy="181.64" rx="0.79" ry="1" transform="translate(-330.74 -82.03) rotate(-10.48)"/><ellipse class="cls-8" cx="436.2" cy="177.76" rx="1.59" ry="2" transform="matrix(0.98, -0.18, 0.18, 0.98, -329.87, -80.4)"/><ellipse class="cls-8" cx="433.35" cy="178.25" rx="2.46" ry="3.11" transform="translate(-330.01 -80.91) rotate(-10.48)"/><ellipse class="cls-8" cx="443.95" cy="179.73" rx="1.9" ry="2.4" transform="translate(-330.1 -78.96) rotate(-10.48)"/><ellipse class="cls-7" cx="431.72" cy="181.2" rx="1.9" ry="2.4" transform="translate(-330.57 -81.16) rotate(-10.48)"/><ellipse class="cls-7" cx="443.53" cy="182.18" rx="1.9" ry="2.4" transform="translate(-330.56 -79) rotate(-10.48)"/><ellipse class="cls-7" cx="446.1" cy="183.37" rx="1.9" ry="2.4" transform="translate(-330.73 -78.51) rotate(-10.48)"/><ellipse class="cls-7" cx="448.87" cy="183.64" rx="1.99" ry="3.4" transform="translate(-95.45 442.65) rotate(-82.66)"/><ellipse class="cls-7" cx="439.28" cy="180.77" rx="1.9" ry="2.4" transform="translate(-330.37 -79.79) rotate(-10.48)"/><ellipse class="cls-7" cx="441.33" cy="180.97" rx="1.9" ry="2.4" transform="translate(-330.37 -79.42) rotate(-10.48)"/><ellipse class="cls-7" cx="426.3" cy="184.99" rx="1.9" ry="2.4" transform="translate(-331.36 -82.08) rotate(-10.48)"/><ellipse class="cls-7" cx="434.29" cy="179.07" rx="1.9" ry="2.4" transform="translate(-330.14 -80.73) rotate(-10.48)"/><ellipse class="cls-7" cx="437.18" cy="179.84" rx="1.66" ry="1.99" transform="translate(-340.34 21.78) rotate(-22.92)"/><ellipse class="cls-7" cx="429.38" cy="182.05" rx="1.16" ry="1.47" transform="translate(-330.77 -81.57) rotate(-10.48)"/><ellipse class="cls-7" cx="427.8" cy="182.61" rx="1.16" ry="1.47" transform="translate(-330.9 -81.85) rotate(-10.48)"/><ellipse class="cls-7" cx="426.09" cy="182.55" rx="0.84" ry="1.06" transform="translate(-330.91 -82.16) rotate(-10.48)"/><ellipse class="cls-7" cx="447.03" cy="185.44" rx="0.84" ry="1.06" transform="translate(-331.09 -78.3) rotate(-10.48)"/><ellipse class="cls-7" cx="424.86" cy="183.29" rx="0.99" ry="1.31" transform="translate(-267.36 273.59) rotate(-56.48)"/><ellipse class="cls-7" cx="423.4" cy="184.71" rx="1.04" ry="2.2" transform="translate(-129.61 411.59) rotate(-81.07)"/><ellipse class="cls-9" cx="435.3" cy="183.34" rx="2.54" ry="3.07" transform="translate(-340.95 -8.56) rotate(-19.3)"/><ellipse class="cls-9" cx="433.12" cy="186.53" rx="2.54" ry="3.07" transform="translate(-342.13 -9.1) rotate(-19.3)"/><ellipse class="cls-9" cx="437.21" cy="186.34" rx="2.54" ry="3.07" transform="translate(-341.83 -7.75) rotate(-19.3)"/><ellipse class="cls-9" cx="442.45" cy="185.87" rx="2.94" ry="4.74" transform="translate(-142 413.17) rotate(-77.15)"/><ellipse class="cls-9" cx="432.53" cy="183.49" rx="1.27" ry="1.53" transform="translate(-341.15 -9.46) rotate(-19.3)"/><ellipse class="cls-9" cx="426.07" cy="186.15" rx="1.49" ry="2.67" transform="translate(-109.34 427.18) rotate(-83.87)"/><ellipse class="cls-9" cx="428.67" cy="184.58" rx="1.27" ry="1.53" transform="translate(-341.73 -10.68) rotate(-19.3)"/><ellipse class="cls-9" cx="429.83" cy="186.39" rx="1.27" ry="1.53" transform="translate(-342.26 -10.19) rotate(-19.3)"/><ellipse class="cls-9" cx="430.37" cy="183.82" rx="1.27" ry="1.53" transform="translate(-341.38 -10.15) rotate(-19.3)"/><ellipse class="cls-9" cx="437.99" cy="183.21" rx="1.27" ry="1.53" transform="translate(-340.75 -7.67) rotate(-19.3)"/><ellipse class="cls-9" cx="440.4" cy="183.12" rx="0.97" ry="1.23" transform="translate(-277.45 258.92) rotate(-52.58)"/><ellipse class="cls-8" cx="433.79" cy="218.28" rx="0.92" ry="1.16" transform="translate(-337.29 -80.16) rotate(-10.48)"/><ellipse class="cls-8" cx="432.87" cy="219.76" rx="0.92" ry="1.16" transform="translate(-337.57 -80.31) rotate(-10.48)"/><ellipse class="cls-8" cx="431.8" cy="220.27" rx="0.92" ry="1.16" transform="translate(-337.68 -80.49) rotate(-10.48)"/><ellipse class="cls-8" cx="425.5" cy="220.56" rx="0.92" ry="1.16" transform="translate(-337.84 -81.63) rotate(-10.48)"/><ellipse class="cls-8" cx="431.77" cy="213.69" rx="0.92" ry="1.16" transform="translate(-336.48 -80.61) rotate(-10.48)"/><ellipse class="cls-8" cx="415.48" cy="212.1" rx="1.59" ry="2" transform="translate(-336.47 -83.6) rotate(-10.48)"/><ellipse class="cls-8" cx="424.45" cy="210.28" rx="1.59" ry="2" transform="translate(-335.98 -82) rotate(-10.48)"/><ellipse class="cls-8" cx="426.78" cy="210.97" rx="1.3" ry="1.52" transform="translate(-348.54 -24.38) rotate(-17.53)"/><ellipse class="cls-8" cx="413.47" cy="213.25" rx="1.11" ry="1.4" transform="translate(-336.71 -83.94) rotate(-10.48)"/><ellipse class="cls-8" cx="412.56" cy="214.38" rx="0.79" ry="1" transform="translate(-336.93 -84.09) rotate(-10.48)"/><ellipse class="cls-8" cx="421.88" cy="210.5" rx="1.59" ry="2" transform="translate(-336.07 -82.46) rotate(-10.48)"/><ellipse class="cls-8" cx="419.04" cy="210.99" rx="2.46" ry="3.11" transform="translate(-336.21 -82.97) rotate(-10.48)"/><ellipse class="cls-8" cx="429.64" cy="212.47" rx="1.9" ry="2.4" transform="translate(-336.3 -81.02) rotate(-10.48)"/><ellipse class="cls-7" cx="417.4" cy="213.93" rx="1.9" ry="2.4" transform="translate(-336.77 -83.22) rotate(-10.48)"/><ellipse class="cls-7" cx="429.21" cy="214.91" rx="1.9" ry="2.4" transform="translate(-336.75 -81.05) rotate(-10.48)"/><ellipse class="cls-7" cx="431.78" cy="216.11" rx="1.9" ry="2.4" transform="translate(-336.92 -80.57) rotate(-10.48)"/><ellipse class="cls-7" cx="434.55" cy="216.38" rx="1.99" ry="3.4" transform="matrix(0.13, -0.99, 0.99, 0.13, -140.4, 457)"/><ellipse class="cls-7" cx="424.96" cy="213.51" rx="1.9" ry="2.4" transform="translate(-336.56 -81.85) rotate(-10.48)"/><ellipse class="cls-7" cx="427.01" cy="213.71" rx="1.9" ry="2.4" transform="translate(-336.57 -81.47) rotate(-10.48)"/><ellipse class="cls-7" cx="411.98" cy="217.73" rx="1.9" ry="2.4" transform="translate(-337.55 -84.14) rotate(-10.48)"/><ellipse class="cls-7" cx="419.97" cy="211.81" rx="1.9" ry="2.4" transform="translate(-336.34 -82.79) rotate(-10.48)"/><ellipse class="cls-7" cx="422.86" cy="212.58" rx="1.66" ry="1.99" transform="translate(-354.22 18.79) rotate(-22.92)"/><ellipse class="cls-7" cx="415.06" cy="214.78" rx="1.16" ry="1.47" transform="translate(-336.96 -83.63) rotate(-10.48)"/><ellipse class="cls-7" cx="413.48" cy="215.35" rx="1.16" ry="1.47" transform="translate(-337.09 -83.91) rotate(-10.48)"/><ellipse class="cls-7" cx="411.77" cy="215.29" rx="0.84" ry="1.06" transform="translate(-337.11 -84.22) rotate(-10.48)"/><ellipse class="cls-7" cx="432.72" cy="218.17" rx="0.84" ry="1.06" transform="translate(-337.28 -80.36) rotate(-10.48)"/><ellipse class="cls-7" cx="410.55" cy="216.02" rx="0.99" ry="1.31" transform="matrix(0.55, -0.83, 0.83, 0.55, -301.07, 276.31)"/><ellipse class="cls-7" cx="409.08" cy="217.45" rx="1.04" ry="2.2" transform="translate(-174.04 425.1) rotate(-81.07)"/><ellipse class="cls-9" cx="420.98" cy="216.08" rx="2.54" ry="3.07" transform="translate(-352.57 -11.45) rotate(-19.3)"/><ellipse class="cls-9" cx="418.8" cy="219.27" rx="2.54" ry="3.07" transform="translate(-353.75 -11.99) rotate(-19.3)"/><ellipse class="cls-9" cx="422.89" cy="219.08" rx="2.54" ry="3.07" transform="matrix(0.94, -0.33, 0.33, 0.94, -353.46, -10.65)"/><ellipse class="cls-9" cx="428.13" cy="218.61" rx="2.94" ry="4.74" transform="translate(-185.05 424.67) rotate(-77.15)"/><ellipse class="cls-9" cx="418.21" cy="216.23" rx="1.27" ry="1.53" transform="translate(-352.78 -12.35) rotate(-19.3)"/><ellipse class="cls-9" cx="411.76" cy="218.88" rx="1.49" ry="2.67" transform="translate(-154.67 442.19) rotate(-83.87)"/><ellipse class="cls-9" cx="414.35" cy="217.32" rx="1.27" ry="1.53" transform="translate(-353.36 -13.57) rotate(-19.3)"/><ellipse class="cls-9" cx="415.51" cy="219.13" rx="1.27" ry="1.53" transform="translate(-353.89 -13.08) rotate(-19.3)"/><ellipse class="cls-9" cx="416.05" cy="216.56" rx="1.27" ry="1.53" transform="translate(-353.01 -13.05) rotate(-19.3)"/><ellipse class="cls-9" cx="423.68" cy="215.94" rx="1.27" ry="1.53" transform="translate(-352.38 -10.56) rotate(-19.3)"/><ellipse class="cls-9" cx="426.08" cy="215.86" rx="0.97" ry="1.23" transform="translate(-309.07 260.39) rotate(-52.58)"/><ellipse class="cls-8" cx="411.9" cy="214.57" rx="0.92" ry="1.16" transform="matrix(0.98, -0.18, 0.18, 0.98, -336.98, -84.21)"/><ellipse class="cls-8" cx="410.98" cy="216.05" rx="0.92" ry="1.16" transform="translate(-337.26 -84.35) rotate(-10.48)"/><ellipse class="cls-8" cx="409.91" cy="216.55" rx="0.92" ry="1.16" transform="translate(-337.37 -84.54) rotate(-10.48)"/><ellipse class="cls-8" cx="403.61" cy="216.84" rx="0.92" ry="1.16" transform="translate(-337.53 -85.68) rotate(-10.48)"/><ellipse class="cls-8" cx="409.88" cy="209.97" rx="0.92" ry="1.16" transform="translate(-336.17 -84.65) rotate(-10.48)"/><ellipse class="cls-8" cx="393.59" cy="208.39" rx="1.59" ry="2" transform="translate(-336.16 -87.64) rotate(-10.48)"/><ellipse class="cls-8" cx="402.56" cy="206.56" rx="1.59" ry="2" transform="translate(-335.67 -86.04) rotate(-10.48)"/><ellipse class="cls-8" cx="404.89" cy="207.26" rx="1.3" ry="1.52" transform="translate(-348.44 -31.14) rotate(-17.53)"/><ellipse class="cls-8" cx="391.58" cy="209.53" rx="1.11" ry="1.4" transform="matrix(0.98, -0.18, 0.18, 0.98, -336.4, -87.99)"/><ellipse class="cls-8" cx="390.67" cy="210.66" rx="0.79" ry="1" transform="translate(-336.62 -88.13) rotate(-10.48)"/><ellipse class="cls-8" cx="399.99" cy="206.78" rx="1.59" ry="2" transform="translate(-335.76 -86.51) rotate(-10.48)"/><ellipse class="cls-8" cx="397.15" cy="207.28" rx="2.46" ry="3.11" transform="translate(-335.89 -87.01) rotate(-10.48)"/><ellipse class="cls-8" cx="407.75" cy="208.75" rx="1.9" ry="2.4" transform="translate(-335.99 -85.06) rotate(-10.48)"/><ellipse class="cls-7" cx="395.51" cy="210.22" rx="1.9" ry="2.4" transform="matrix(0.98, -0.18, 0.18, 0.98, -336.46, -87.26)"/><ellipse class="cls-7" cx="407.32" cy="211.2" rx="1.9" ry="2.4" transform="translate(-336.44 -85.1) rotate(-10.48)"/><ellipse class="cls-7" cx="409.89" cy="212.39" rx="1.9" ry="2.4" transform="translate(-336.61 -84.61) rotate(-10.48)"/><ellipse class="cls-7" cx="412.66" cy="212.66" rx="1.99" ry="3.4" transform="translate(-155.81 432.05) rotate(-82.66)"/><ellipse class="cls-7" cx="403.07" cy="209.8" rx="1.9" ry="2.4" transform="translate(-336.25 -85.89) rotate(-10.48)"/><ellipse class="cls-7" cx="405.12" cy="209.99" rx="1.9" ry="2.4" transform="translate(-336.26 -85.52) rotate(-10.48)"/><ellipse class="cls-7" cx="390.09" cy="214.02" rx="1.9" ry="2.4" transform="translate(-337.24 -88.18) rotate(-10.48)"/><ellipse class="cls-7" cx="398.08" cy="208.09" rx="1.9" ry="2.4" transform="translate(-336.03 -86.83) rotate(-10.48)"/><ellipse class="cls-7" cx="400.97" cy="208.86" rx="1.66" ry="1.99" transform="translate(-354.5 9.97) rotate(-22.92)"/><ellipse class="cls-7" cx="393.17" cy="211.07" rx="1.16" ry="1.47" transform="translate(-336.65 -87.67) rotate(-10.48)"/><ellipse class="cls-7" cx="391.59" cy="211.63" rx="1.16" ry="1.47" transform="translate(-336.78 -87.95) rotate(-10.48)"/><ellipse class="cls-7" cx="389.88" cy="211.57" rx="0.84" ry="1.06" transform="translate(-336.8 -88.26) rotate(-10.48)"/><ellipse class="cls-7" cx="410.83" cy="214.46" rx="0.84" ry="1.06" transform="translate(-336.97 -84.41) rotate(-10.48)"/><ellipse class="cls-7" cx="388.66" cy="212.31" rx="0.99" ry="1.31" transform="translate(-307.78 256.39) rotate(-56.48)"/><ellipse class="cls-7" cx="387.19" cy="213.73" rx="1.04" ry="2.2" transform="translate(-188.87 400.34) rotate(-81.07)"/><ellipse class="cls-9" cx="399.09" cy="212.36" rx="2.54" ry="3.07" transform="translate(-352.57 -18.89) rotate(-19.3)"/><ellipse class="cls-9" cx="396.91" cy="215.55" rx="2.54" ry="3.07" transform="translate(-353.75 -19.43) rotate(-19.3)"/><ellipse class="cls-9" cx="401" cy="215.36" rx="2.54" ry="3.07" transform="translate(-353.46 -18.09) rotate(-19.3)"/><ellipse class="cls-9" cx="406.24" cy="214.89" rx="2.94" ry="4.74" transform="translate(-198.45 400.44) rotate(-77.15)"/><ellipse class="cls-9" cx="396.32" cy="212.51" rx="1.27" ry="1.53" transform="translate(-352.78 -19.8) rotate(-19.3)"/><ellipse class="cls-9" cx="389.87" cy="215.17" rx="1.49" ry="2.67" transform="translate(-170.53 417.1) rotate(-83.87)"/><ellipse class="cls-9" cx="392.46" cy="213.61" rx="1.27" ry="1.53" transform="translate(-353.36 -21.01) rotate(-19.3)"/><ellipse class="cls-9" cx="393.62" cy="215.42" rx="1.27" ry="1.53" transform="translate(-353.89 -20.53) rotate(-19.3)"/><ellipse class="cls-9" cx="394.16" cy="212.85" rx="1.27" ry="1.53" transform="translate(-353.01 -20.49) rotate(-19.3)"/><ellipse class="cls-9" cx="401.79" cy="212.23" rx="1.27" ry="1.53" transform="translate(-352.38 -18.01) rotate(-19.3)"/><ellipse class="cls-9" cx="404.19" cy="212.14" rx="0.97" ry="1.23" transform="translate(-314.71 241.55) rotate(-52.58)"/><ellipse class="cls-8" cx="478.31" cy="190.41" rx="0.92" ry="1.16" transform="translate(-331.47 -72.53) rotate(-10.48)"/><ellipse class="cls-8" cx="477.39" cy="191.89" rx="0.92" ry="1.16" transform="translate(-331.76 -72.67) rotate(-10.48)"/><ellipse class="cls-8" cx="476.32" cy="192.39" rx="0.92" ry="1.16" transform="translate(-331.87 -72.86) rotate(-10.48)"/><ellipse class="cls-8" cx="470.02" cy="192.68" rx="0.92" ry="1.16" transform="translate(-332.02 -74) rotate(-10.48)"/><ellipse class="cls-8" cx="476.29" cy="185.81" rx="0.92" ry="1.16" transform="translate(-330.67 -72.97) rotate(-10.48)"/><ellipse class="cls-8" cx="460" cy="184.23" rx="1.59" ry="2" transform="translate(-330.65 -75.97) rotate(-10.48)"/><ellipse class="cls-8" cx="468.98" cy="182.4" rx="1.59" ry="2" transform="translate(-330.17 -74.36) rotate(-10.48)"/><ellipse class="cls-8" cx="471.3" cy="183.1" rx="1.3" ry="1.52" transform="translate(-338.08 -12.26) rotate(-17.53)"/><ellipse class="cls-8" cx="458" cy="185.37" rx="1.11" ry="1.4" transform="translate(-330.9 -76.31) rotate(-10.48)"/><ellipse class="cls-8" cx="457.09" cy="186.5" rx="0.79" ry="1" transform="translate(-331.12 -76.46) rotate(-10.48)"/><ellipse class="cls-8" cx="466.4" cy="182.62" rx="1.59" ry="2" transform="translate(-330.25 -74.83) rotate(-10.48)"/><ellipse class="cls-8" cx="463.56" cy="183.12" rx="2.46" ry="3.11" transform="translate(-330.39 -75.34) rotate(-10.48)"/><ellipse class="cls-8" cx="474.16" cy="184.59" rx="1.9" ry="2.4" transform="translate(-330.48 -73.38) rotate(-10.48)"/><ellipse class="cls-7" cx="461.93" cy="186.06" rx="1.9" ry="2.4" transform="translate(-330.95 -75.58) rotate(-10.48)"/><ellipse class="cls-7" cx="473.73" cy="187.04" rx="1.9" ry="2.4" transform="translate(-330.94 -73.42) rotate(-10.48)"/><ellipse class="cls-7" cx="476.31" cy="188.23" rx="1.9" ry="2.4" transform="translate(-331.11 -72.93) rotate(-10.48)"/><ellipse class="cls-7" cx="479.07" cy="188.51" rx="1.99" ry="3.4" transform="translate(-73.92 476.85) rotate(-82.66)"/><ellipse class="cls-7" cx="469.49" cy="185.64" rx="1.9" ry="2.4" transform="translate(-330.75 -74.22) rotate(-10.48)"/><ellipse class="cls-7" cx="471.54" cy="185.84" rx="1.9" ry="2.4" transform="translate(-330.75 -73.84) rotate(-10.48)"/><ellipse class="cls-7" cx="456.51" cy="189.86" rx="1.9" ry="2.4" transform="translate(-331.74 -76.51) rotate(-10.48)"/><ellipse class="cls-7" cx="464.49" cy="183.93" rx="1.9" ry="2.4" transform="translate(-330.52 -75.15) rotate(-10.48)"/><ellipse class="cls-7" cx="467.39" cy="184.7" rx="1.66" ry="1.99" transform="translate(-339.85 33.93) rotate(-22.92)"/><ellipse class="cls-7" cx="459.59" cy="186.91" rx="1.16" ry="1.47" transform="matrix(0.98, -0.18, 0.18, 0.98, -331.15, -76)"/><ellipse class="cls-7" cx="458.01" cy="187.47" rx="1.16" ry="1.47" transform="translate(-331.28 -76.27) rotate(-10.48)"/><ellipse class="cls-7" cx="456.29" cy="187.41" rx="0.84" ry="1.06" transform="translate(-331.3 -76.59) rotate(-10.48)"/><ellipse class="cls-7" cx="477.24" cy="190.3" rx="0.84" ry="1.06" transform="translate(-331.47 -72.73) rotate(-10.48)"/><ellipse class="cls-7" cx="455.07" cy="188.15" rx="0.99" ry="1.31" transform="matrix(0.55, -0.83, 0.83, 0.55, -257.89, 300.95)"/><ellipse class="cls-7" cx="453.6" cy="189.57" rx="1.04" ry="2.2" transform="translate(-108.89 445.54) rotate(-81.07)"/><ellipse class="cls-9" cx="465.5" cy="188.2" rx="2.54" ry="3.07" transform="translate(-340.86 1.7) rotate(-19.3)"/><ellipse class="cls-9" cx="463.32" cy="191.4" rx="2.54" ry="3.07" transform="translate(-342.04 1.16) rotate(-19.3)"/><ellipse class="cls-9" cx="467.42" cy="191.2" rx="2.54" ry="3.07" transform="translate(-341.74 2.5) rotate(-19.3)"/><ellipse class="cls-9" cx="472.66" cy="190.73" rx="2.94" ry="4.74" transform="translate(-123.26 446.4) rotate(-77.15)"/><ellipse class="cls-9" cx="462.74" cy="188.35" rx="1.27" ry="1.53" transform="translate(-341.06 0.8) rotate(-19.3)"/><ellipse class="cls-9" cx="456.28" cy="191.01" rx="1.49" ry="2.67" transform="translate(-87.19 461.56) rotate(-83.87)"/><ellipse class="cls-9" cx="458.87" cy="189.45" rx="1.27" ry="1.53" transform="translate(-341.64 -0.42) rotate(-19.3)"/><ellipse class="cls-9" cx="460.03" cy="191.26" rx="1.27" ry="1.53" transform="translate(-342.17 0.06) rotate(-19.3)"/><ellipse class="cls-9" cx="460.58" cy="188.69" rx="1.27" ry="1.53" transform="translate(-341.29 0.1) rotate(-19.3)"/><ellipse class="cls-9" cx="468.2" cy="188.07" rx="1.27" ry="1.53" transform="translate(-340.66 2.59) rotate(-19.3)"/><ellipse class="cls-9" cx="470.61" cy="187.98" rx="0.97" ry="1.23" transform="translate(-269.46 284.82) rotate(-52.58)"/><ellipse class="cls-9" cx="120.87" cy="58.51" rx="3.45" ry="3.04"/><ellipse class="cls-9" cx="104.22" cy="54.86" rx="7.25" ry="3.65"/><rect class="cls-13" x="51.37" y="165.4" width="12.6" height="4.09" rx="1.44"/><rect class="cls-13" x="165.27" y="161.06" width="12.6" height="4.09" rx="1.44"/><rect class="cls-13" x="17.27" y="141.64" width="8.66" height="2.89" rx="1.44"/><rect class="cls-13" x="387.37" y="294.23" width="8.73" height="2.89" rx="1.44" transform="translate(512.13 378.07) rotate(172.92)"/><rect class="cls-13" x="56.51" y="158.44" width="9.77" height="2.95" rx="1.47"/><rect class="cls-13" x="86.65" y="196.01" width="9.77" height="2.95" rx="1.47"/><ellipse class="cls-13" cx="65.7" cy="162.55" rx="1.45" ry="0.55"/><ellipse class="cls-13" cx="175.94" cy="169.82" rx="1.45" ry="0.55"/><ellipse class="cls-13" cx="108.55" cy="200.53" rx="1.45" ry="0.55"/><ellipse class="cls-13" cx="94.79" cy="201.08" rx="1.45" ry="0.55"/><circle class="cls-13" cx="67.4" cy="163.42" r="0.32"/><circle class="cls-13" cx="27.02" cy="144.52" r="0.32"/><rect class="cls-13" x="22.39" y="145.42" width="7.24" height="1.4" rx="0.25"/><rect class="cls-13" x="160.38" y="167.44" width="7.24" height="1.4" rx="0.25"/><rect class="cls-13" x="164.23" y="169.67" width="7.24" height="1.4" rx="0.25"/><rect class="cls-13" x="175.06" y="142.38" width="7.24" height="1.4" rx="0.25"/></g></svg>